<?xml version="1.0" encoding="UTF-8" standalone="no"?>
<svg
   xmlns:osb="http://www.openswatchbook.org/uri/2009/osb"
   xmlns:dc="http://purl.org/dc/elements/1.1/"
   xmlns:cc="http://creativecommons.org/ns#"
   xmlns:rdf="http://www.w3.org/1999/02/22-rdf-syntax-ns#"
   xmlns:svg="http://www.w3.org/2000/svg"
   xmlns="http://www.w3.org/2000/svg"
   xmlns:sodipodi="http://sodipodi.sourceforge.net/DTD/sodipodi-0.dtd"
   xmlns:inkscape="http://www.inkscape.org/namespaces/inkscape"
   inkscape:export-ydpi="85.333336"
   inkscape:export-xdpi="85.333336"
   inkscape:export-filename="C:\Users\USER\Desktop\icons\favicon-32x32.png"
   id="svg8"
   version="1.1"
   viewBox="0 0 9.5249994 9.5250003"
   height="36"
   width="36"
   sodipodi:docname="application_logo.svg"
   inkscape:version="1.0 (4035a4fb49, 2020-05-01)">
  <title
     id="title4063">Management Icon</title>
  <sodipodi:namedview
     units="px"
     inkscape:current-layer="layer2"
     inkscape:window-maximized="1"
     inkscape:window-y="-9"
     inkscape:window-x="-9"
     inkscape:cy="13.559395"
     inkscape:cx="29.915547"
     inkscape:zoom="14.061668"
     inkscape:lockguides="false"
     inkscape:snap-global="false"
     inkscape:snap-nodes="false"
     showgrid="false"
     id="namedview18"
     inkscape:window-height="1001"
     inkscape:window-width="1920"
     inkscape:pageshadow="2"
     inkscape:pageopacity="0"
     guidetolerance="10"
     gridtolerance="10"
     objecttolerance="10"
     borderopacity="1"
     bordercolor="#666666"
     pagecolor="#ffffff"
     inkscape:document-rotation="0" />
  <defs
     id="defs2">
    <inkscape:path-effect
       effect="skeletal"
       id="path-effect1241"
       is_visible="true"
       lpeversion="1"
       pattern="M 0,5 C 0,2.24 2.24,0 5,0 7.76,0 10,2.24 10,5 10,7.76 7.76,10 5,10 2.24,10 0,7.76 0,5 Z"
       copytype="single_stretched"
       prop_scale="1"
       scale_y_rel="false"
       spacing="0"
       normal_offset="0"
       tang_offset="0"
       prop_units="false"
       vertical_pattern="false"
       hide_knot="false"
       fuse_tolerance="0" />
    <inkscape:path-effect
       effect="skeletal"
       id="path-effect1237"
       is_visible="true"
       lpeversion="1"
       pattern="M 0,5 C 0,2.24 2.24,0 5,0 7.76,0 10,2.24 10,5 10,7.76 7.76,10 5,10 2.24,10 0,7.76 0,5 Z"
       copytype="single_stretched"
       prop_scale="1"
       scale_y_rel="false"
       spacing="0"
       normal_offset="0"
       tang_offset="0"
       prop_units="false"
       vertical_pattern="false"
       hide_knot="false"
       fuse_tolerance="0" />
    <inkscape:path-effect
       effect="fillet_chamfer"
       id="path-effect951"
       is_visible="true"
       lpeversion="1"
       satellites_param="F,0,0,1,0,0,0,1 @ F,0,0,1,0,5.6059793,0,1 @ F,0,0,1,0,0,0,1"
       unit="px"
       method="auto"
       mode="F"
       radius="0"
       chamfer_steps="1"
       flexible="false"
       use_knot_distance="true"
       apply_no_radius="true"
       apply_with_radius="true"
       only_selected="false"
       hide_knots="false" />
    <inkscape:path-effect
       effect="fillet_chamfer"
       id="path-effect917"
       is_visible="true"
       lpeversion="1"
       satellites_param="F,0,0,1,0,0,0,1 @ F,0,0,1,0,0,0,1 @ F,0,0,1,0,0,0,1 @ F,0,0,1,0,0,0,1 @ F,0,0,1,0,0,0,1 @ F,0,0,1,0,0,0,1 @ F,0,0,1,0,0,0,1 @ F,0,0,1,0,0,0,1 @ F,0,0,1,0,0,0,1 @ F,0,0,1,0,0,0,1 @ F,0,0,1,0,0,0,1 @ F,0,0,1,0,0,0,1 @ F,0,0,1,0,0,0,1 @ F,0,0,1,0,0,0,1 @ F,0,0,1,0,0,0,1 @ F,0,0,1,0,0,0,1 @ F,0,0,1,0,0,0,1 @ F,0,0,1,0,0,0,1 @ F,0,0,1,0,0,0,1 @ F,0,0,1,0,0,0,1 @ F,0,0,1,0,0,0,1 @ F,0,0,1,0,0,0,1 @ F,0,0,1,0,0,0,1 @ F,0,0,1,0,0,0,1 @ F,0,0,1,0,0,0,1 @ F,0,0,1,0,0,0,1 @ F,0,0,1,0,0,0,1 @ F,0,0,1,0,0,0,1 @ F,0,0,1,0,0,0,1 @ F,0,0,1,0,0,0,1 @ F,0,0,1,0,0,0,1 @ F,0,0,1,0,0,0,1 @ F,0,0,1,0,0,0,1 @ F,0,0,1,0,0,0,1 @ F,0,0,1,0,0,0,1 @ F,0,0,1,0,0,0,1 @ F,0,0,1,0,0,0,1 @ F,0,0,1,0,0,0,1 @ F,0,0,1,0,0,0,1 @ F,0,0,1,0,0,0,1 @ F,0,0,1,0,0,0,1 @ F,0,0,1,0,17.439858,0,1 @ F,0,0,1,0,0,0,1 @ F,0,0,1,0,0,0,1 @ F,0,0,1,0,0,0,1 @ F,0,0,1,0,0,0,1 @ F,0,0,1,0,0,0,1 @ F,0,0,1,0,0,0,1 | F,0,0,1,0,0,0,1 @ F,0,0,1,0,0,0,1 @ F,0,0,1,0,0,0,1 @ F,0,0,1,0,0,0,1 @ F,0,0,1,0,0,0,1 | F,0,0,1,0,0,0,1 @ F,0,0,1,0,0,0,1 @ F,0,0,1,0,0,0,1 @ F,0,0,1,0,0,0,1 @ F,0,0,1,0,0,0,1 @ F,0,0,1,0,0,0,1 @ F,0,0,1,0,0,0,1 @ F,0,0,1,0,0,0,1 @ F,0,0,1,0,0,0,1 @ F,0,0,1,0,0,0,1 @ F,0,0,1,0,0,0,1 @ F,0,0,1,0,0,0,1 @ F,0,0,1,0,0,0,1 @ F,0,0,1,0,0,0,1 @ F,0,0,1,0,0,0,1 @ F,0,0,1,0,0,0,1 @ F,0,0,1,0,0,0,1 @ F,0,0,1,0,0,0,1 @ F,0,0,1,0,0,0,1 | F,0,0,1,0,0,0,1 @ F,0,0,1,0,23.464394,0,1 @ F,0,0,1,0,0,0,1 @ F,0,0,1,0,0,0,1 @ F,0,0,1,0,0,0,1 @ F,0,0,1,0,0,0,1 @ F,0,0,1,0,0,0,1 @ F,0,0,1,0,0,0,1 @ F,0,0,1,0,0,0,1 @ F,0,0,1,0,0,0,1 @ F,0,0,1,0,0,0,1 @ F,0,0,1,0,0,0,1 @ F,0,0,1,0,0,0,1 @ F,0,0,1,0,0,0,1 | F,0,0,1,0,0,0,1 @ F,0,0,1,0,0,0,1 @ F,0,0,1,0,0,0,1 @ F,0,0,1,0,0,0,1 @ F,0,0,1,0,0,0,1 @ F,0,0,1,0,0,0,1 | F,0,0,1,0,0,0,1 @ F,0,0,1,0,0,0,1 @ F,0,0,1,0,0,0,1 | F,0,0,1,0,0,0,1 @ F,0,0,1,0,0,0,1 @ F,0,0,1,0,0,0,1 @ F,0,0,1,0,0,0,1 | F,0,0,1,0,0,0,1 @ F,0,0,1,0,0,0,1 @ F,0,0,1,0,0,0,1 @ F,0,0,1,0,0,0,1 @ F,0,0,1,0,0,0,1 @ F,0,0,1,0,0,0,1 | F,0,0,1,0,0,0,1 @ F,0,0,1,0,0,0,1 @ F,0,0,1,0,0,0,1 @ F,0,0,1,0,0,0,1"
       unit="px"
       method="auto"
       mode="F"
       radius="0"
       chamfer_steps="1"
       flexible="false"
       use_knot_distance="true"
       apply_no_radius="true"
       apply_with_radius="true"
       only_selected="false"
       hide_knots="false" />
    <rect
       id="rect1278"
       height="10.93295"
       width="28.698994"
       y="74.480721"
       x="-64.743561" />
    <inkscape:path-effect
       hide_knots="false"
       only_selected="false"
       apply_with_radius="true"
       apply_no_radius="true"
       use_knot_distance="true"
       flexible="false"
       chamfer_steps="1"
       radius="0"
       mode="F"
       method="auto"
       unit="px"
       satellites_param="F,0,0,1,0,7.6872305,0,1 @ F,0,0,1,0,7.8580579,0,1 @ F,0,0,1,0,0,0,1 @ F,0,0,1,0,0,0,1"
       lpeversion="1"
       is_visible="true"
       id="path-effect1083"
       effect="fillet_chamfer" />
    <inkscape:path-effect
       effect="fillet_chamfer"
       id="path-effect1053"
       is_visible="true"
       lpeversion="1"
       satellites_param="F,0,0,1,0,7.6872305,0,1 @ F,0,0,1,0,7.8580579,0,1 @ F,0,0,1,0,0,0,1 @ F,0,0,1,0,0,0,1"
       unit="px"
       method="auto"
       mode="F"
       radius="0"
       chamfer_steps="1"
       flexible="false"
       use_knot_distance="true"
       apply_no_radius="true"
       apply_with_radius="true"
       only_selected="false"
       hide_knots="false" />
    <inkscape:path-effect
       hide_knots="false"
       only_selected="false"
       apply_with_radius="true"
       apply_no_radius="true"
       use_knot_distance="true"
       flexible="false"
       chamfer_steps="1"
       radius="0"
       mode="F"
       method="auto"
       unit="px"
       satellites_param="F,0,0,1,0,7.6872305,0,1 @ F,0,0,1,0,7.8580579,0,1 @ F,0,0,1,0,0,0,1 @ F,0,0,1,0,0,0,1"
       lpeversion="1"
       is_visible="true"
       id="path-effect1029"
       effect="fillet_chamfer" />
    <linearGradient
       osb:paint="solid"
       id="linearGradient3721">
      <stop
         id="stop3719"
         offset="0"
         style="stop-color:#ffffff;stop-opacity:1;" />
    </linearGradient>
    <linearGradient
       osb:paint="solid"
       id="linearGradient1793">
      <stop
         id="stop1791"
         offset="0"
         style="stop-color:#ffffff;stop-opacity:1;" />
    </linearGradient>
  </defs>
  <metadata
     id="metadata5">
    <rdf:RDF>
      <cc:Work
         rdf:about="">
        <dc:format>image/svg+xml</dc:format>
        <dc:type
           rdf:resource="http://purl.org/dc/dcmitype/StillImage" />
        <dc:title>Management Icon</dc:title>
      </cc:Work>
    </rdf:RDF>
  </metadata>
  <path
     id="path3769"
     d=""
     style="fill:#000000;fill-opacity:1;fill-rule:nonzero;stroke-width:0.0384829;stroke-miterlimit:4;stroke-dasharray:none" />
  <path
     id="path3775"
     d=""
     style="fill:#ffff00;fill-opacity:1;fill-rule:nonzero;stroke-width:0.307864;stroke-miterlimit:4;stroke-dasharray:none" />
  <path
     id="path3777"
     d=""
     style="fill:#ffff00;fill-opacity:1;fill-rule:nonzero;stroke-width:0.307864;stroke-miterlimit:4;stroke-dasharray:none" />
  <path
     id="path3779"
     d=""
     style="fill:#ffff00;fill-opacity:1;fill-rule:nonzero;stroke-width:0.307864;stroke-miterlimit:4;stroke-dasharray:none" />
  <path
     id="path3781"
     d=""
     style="fill:#ffff00;fill-opacity:1;fill-rule:nonzero;stroke-width:0.307864;stroke-miterlimit:4;stroke-dasharray:none" />
  <path
     id="path3783"
     d=""
     style="fill:#ffff00;fill-opacity:1;fill-rule:nonzero;stroke-width:0.307864;stroke-miterlimit:4;stroke-dasharray:none" />
  <path
     id="path3785"
     d=""
     style="fill:#ffff00;fill-opacity:1;fill-rule:nonzero;stroke-width:0.307864;stroke-miterlimit:4;stroke-dasharray:none" />
  <path
     id="path3787"
     d=""
     style="fill:#ffff00;fill-opacity:1;fill-rule:nonzero;stroke-width:0.307864;stroke-miterlimit:4;stroke-dasharray:none" />
  <path
     id="path3840"
     d=""
     style="fill:#000000;fill-opacity:1;fill-rule:nonzero;stroke-width:0.307864;stroke-miterlimit:4;stroke-dasharray:none" />
  <path
     id="path3844"
     d=""
     style="fill:#000000;fill-opacity:1;fill-rule:nonzero;stroke-width:0.307864;stroke-miterlimit:4;stroke-dasharray:none" />
  <path
     id="path3857"
     d=""
     style="fill:#000000;fill-opacity:1;fill-rule:nonzero;stroke-width:0.307864;stroke-miterlimit:4;stroke-dasharray:none" />
  <path
     id="path3859"
     d=""
     style="fill:#000000;fill-opacity:1;fill-rule:nonzero;stroke-width:0.307864;stroke-miterlimit:4;stroke-dasharray:none" />
  <path
     style="fill:#000000;stroke-width:0.178888"
     d=""
     id="path41" />
  <path
     style="fill:#000000;stroke-width:0.178888"
     d=""
     id="path43" />
  <path
     style="fill:#000000;stroke-width:0.178888"
     d=""
     id="path45" />
  <path
     style="fill:#000000;stroke-width:0.211622"
     d=""
     id="path465" />
  <path
     style="fill:#ffff00;fill-opacity:1;stroke-width:0.00927714"
     d=""
     id="path1344" />
  <path
     style="fill:#ffff00;fill-opacity:1;stroke-width:0.00927714"
     d=""
     id="path1346" />
  <path
     style="fill:#ffff00;fill-opacity:1;stroke-width:0.00927714"
     d=""
     id="path1348" />
  <path
     style="fill:#ffff00;fill-opacity:1;stroke-width:0.00927714"
     d=""
     id="path1350" />
  <path
     style="fill:#ffff00;fill-opacity:1;stroke-width:0.00927714"
     d=""
     id="path1366" />
  <g
     style="display:inline"
     inkscape:label="Scroll"
     id="layer1"
     inkscape:groupmode="layer">
    <g
       transform="matrix(0.13548314,0,0,0.14700731,11.035024,2.6638247)"
       id="g107">
      <path
         id="rect3753"
         style="fill:none;fill-opacity:1;fill-rule:nonzero;stroke-width:0.264583;stroke-miterlimit:4;stroke-dasharray:none"
         d="M -5.6485316,-0.05353967 V 95.384043 H 113.18659 V -0.05353967 Z M 61.402155,74.873152 c 0.248359,0.03484 0.29972,0.341326 -0.04806,0.515213 -0.0684,0.0342 -0.136755,0.06864 -0.205155,0.102835 -0.05985,0.0299 -0.122034,0.0557 -0.179832,0.0894 -0.116642,0.06787 -0.190085,0.160171 -0.320395,0.211873 -0.04787,0.019 -0.09996,0.02543 -0.149863,0.03824 -0.01249,0.0033 -0.02471,0.0074 -0.03721,0.01138 -0.486302,0.146389 -0.628171,-0.363206 -0.137459,-0.494027 0.0259,-0.007 0.05203,-0.01418 0.07803,-0.02119 0.05977,0.02252 0.144949,-0.07292 0.177249,-0.09612 0.17068,-0.1226 0.356346,-0.210074 0.545187,-0.301273 0.05716,-0.02761 0.11061,-0.04491 0.159679,-0.05323 0.04294,-0.0073 0.08234,-0.0081 0.117822,-0.0031 z" />
      <g
         id="g1328">
        <path
           d="M 15.132875,3.0748923 H 78.851472 A 7.8580579,7.8580579 45 0 1 86.70953,10.93295 v 8.199714 H 7.4456444 V 10.762123 A 7.6872305,7.6872305 135 0 1 15.132875,3.0748923 Z"
           inkscape:path-effect="#path-effect1029"
           sodipodi:type="rect"
           y="3.0748923"
           x="7.4456444"
           height="16.057772"
           width="79.263885"
           id="rect185"
           style="fill:#ffffff;stroke:#000000;stroke-width:2.27012;stroke-miterlimit:4;stroke-dasharray:none" />
        <path
           d="M 16.520698,3.1129882 V 10.33632 c -0.008,0.143594 -0.01292,0.288417 -0.01292,0.434082 v 78.820511 c 0,4.211437 3.390166,7.601604 7.601603,7.601604 h 54.990443 c 4.211436,0 7.601603,-3.390167 7.601603,-7.601604 V 10.770402 c 0,-4.2114371 -3.390167,-7.6021201 -7.601603,-7.6021201 h -51.77255 v -0.055294 z"
           style="fill:#ffffff;stroke:#000000;stroke-width:2.27012;stroke-miterlimit:4;stroke-dasharray:none"
           id="rect183" />
        <path
           d="m 31.222642,81.311831 v 8.175212 a 7.6872305,7.6872305 0 0 1 -7.687385,7.687387 h -1.002523 a 7.858058,7.858058 0 0 0 1.741496,0.195336 h 63.718591 a 7.6872305,7.6872305 0 0 0 7.687384,-7.687386 v -8.370549 z"
           style="fill:#ffffff;stroke:#000000;stroke-width:2.27012;stroke-miterlimit:4;stroke-dasharray:none"
           id="rect185-0" />
      </g>
      <path
         id="path1255"
         d="m 28.827475,95.174872 c 1.82711,-2.080961 2.335041,-4.096877 2.335041,-9.267486 v -3.533709 h 30.915803 30.9158 v 4.231375 4.231376 l -0.705914,1.412658 c -0.739907,1.48068 -1.834099,2.526808 -3.368929,3.220934 -0.823645,0.372494 -2.979491,0.404863 -30.849112,0.463193 l -29.963583,0.06271 z"
         style="fill:#ffcb05;fill-opacity:1;stroke:none;stroke-width:0.230715" />
      <path
         id="path1251"
         d="m 9.6202244,14.079792 c 0.0057,-3.309649 0.1231239,-4.3592408 0.6038506,-5.3975618 0.731283,-1.5794972 2.059724,-2.8639304 3.648435,-3.5275732 2.289086,-0.9562054 2.185487,-1.2532624 2.185487,6.266634 v 6.767093 H 12.835572 9.6131473 Z"
         style="fill:#ffcb05;fill-opacity:1;stroke:none;stroke-width:0.322241" />
      <path
         sodipodi:nodetypes="ccc"
         inkscape:original-d="m 91.217669,85.141657 0.210702,9.199745 -43.472339,-0.02"
         inkscape:path-effect="#path-effect951"
         id="path949"
         d="m 91.217669,85.141657 0.08234,3.595235 a 5.4765347,5.4765347 134.35717 0 1 -5.477619,5.601931 l -37.86636,-0.01742"
         style="fill:none;stroke:#000000;stroke-width:1.2229;stroke-linecap:round;stroke-linejoin:round;stroke-miterlimit:4;stroke-dasharray:none;stroke-opacity:1" />
    </g>
  </g>
  <g
     style="display:inline"
     inkscape:label="Arrow"
     id="layer2"
     inkscape:groupmode="layer">
    <path
       d="M -10.458862,-3.3636191 V 18.313492 H 12.305479 V -3.3636191 Z M 2.2842261,13.703509 c 0.046142,0.0067 0.055684,0.06584 -0.00893,0.09939 -0.012708,0.0066 -0.025407,0.01324 -0.038115,0.01984 -0.011119,0.0058 -0.022672,0.01075 -0.033411,0.01725 -0.021671,0.01309 -0.035315,0.0309 -0.059525,0.04087 -0.00889,0.0037 -0.018571,0.0049 -0.027843,0.0074 -0.00232,6.36e-4 -0.00459,0.0014 -0.00691,0.0022 -0.090349,0.02824 -0.1167063,-0.07007 -0.025538,-0.0953 0.00481,-0.0014 0.00967,-0.0027 0.014497,-0.0041 0.011105,0.0043 0.02693,-0.01407 0.032931,-0.01854 0.03171,-0.02365 0.066205,-0.04053 0.1012889,-0.05812 0.01062,-0.0053 0.02055,-0.0087 0.029666,-0.01027 0.00798,-0.0014 0.015298,-0.0016 0.02189,-5.98e-4 z"
       style="fill:none;fill-opacity:1;fill-rule:nonzero;stroke-width:0.0500894;stroke-miterlimit:4;stroke-dasharray:none;image-rendering:auto"
       id="rect3717" />
    <path
       d="M -11.145225,-1.2849197 V 17.838378 H 11.790779 V -1.2849197 Z M 2.2842261,13.703509 c 0.046142,0.0067 0.055684,0.06584 -0.00893,0.09939 -0.012708,0.0066 -0.025407,0.01324 -0.038115,0.01984 -0.011119,0.0058 -0.022672,0.01075 -0.033411,0.01725 -0.021671,0.01309 -0.035315,0.0309 -0.059525,0.04087 -0.00889,0.0037 -0.018571,0.0049 -0.027843,0.0074 -0.00232,6.36e-4 -0.00459,0.0014 -0.00691,0.0022 -0.090349,0.02824 -0.1167063,-0.07007 -0.025538,-0.0953 0.00481,-0.0014 0.00967,-0.0027 0.014497,-0.0041 0.011105,0.0043 0.02693,-0.01407 0.032931,-0.01854 0.03171,-0.02365 0.066205,-0.04053 0.1012889,-0.05812 0.01062,-0.0053 0.02055,-0.0087 0.029666,-0.01027 0.00798,-0.0014 0.015298,-0.0016 0.02189,-5.98e-4 z"
       style="fill:none;fill-opacity:1;fill-rule:nonzero;stroke-width:0.0500894;stroke-miterlimit:4;stroke-dasharray:none"
       id="rect3751" />
    <path
       id="path3865"
       d="M 3.366196,4.2969325 C 3.2107989,4.2329854 3.1516426,4.1290001 3.1681256,3.9488001 3.1783496,3.837017 3.1972182,3.7973196 3.2744434,3.7251113 c 0.084297,-0.078831 0.1092603,-0.087791 0.2446811,-0.087791 0.1079393,0 0.1739739,0.014951 0.2323406,0.052621 0.2388128,0.1541303 0.2142015,0.4855173 -0.044756,0.6027369 -0.144153,0.065262 -0.1908535,0.065838 -0.3405114,0.00426 z M 3.7734044,4.1807027 c 0.070073,-0.072333 0.086685,-0.1117872 0.086685,-0.2058598 0,-0.1006462 -0.013498,-0.1278901 -0.099745,-0.2016333 C 3.6237095,3.6564098 3.459085,3.6529957 3.3195045,3.7641013 3.159452,3.8914762 3.1593473,4.0735701 3.3192851,4.2078985 c 0.059239,0.049761 0.1037273,0.062316 0.2208236,0.062316 0.1328934,0 0.1547601,-0.00838 0.2333216,-0.089477 z"
       style="fill:#000000;fill-opacity:1;fill-rule:nonzero;stroke-width:0.02659;stroke-miterlimit:4;stroke-dasharray:none" />
    <path
       style="fill:#ffcb05;fill-opacity:1;stroke-width:0.0173093"
       d="M 5.9182355,4.3335127 C 5.8212359,4.3226211 5.812201,4.3162204 5.834031,4.2738664 5.8445838,4.2533982 5.9376688,4.1461302 6.0408905,4.0354929 L 6.2285674,3.8343346 6.5108119,3.8352413 6.7930584,3.836148 6.5382546,4.0909748 6.2834527,4.3458022 6.1305719,4.3429895 c -0.084085,-0.00154 -0.179636,-0.00582 -0.2123364,-0.00949 z"
       id="path1334" />
    <path
       style="fill:#ffcb05;fill-opacity:1;stroke-width:0.0017563"
       d="M 5.3056285,3.4959383 V 3.2243273 L 5.4163671,3.1096999 C 5.6155963,2.9034768 5.7037784,2.8162885 5.754961,2.7749208 c 0.021165,-0.017105 0.025544,-0.019081 0.029906,-0.013486 0.00381,0.00488 0.00955,0.027045 0.012838,0.04963 0.00308,0.021184 0.00502,0.055807 0.00275,0.049136 -0.00111,-0.00347 -0.00149,-0.00177 -0.00167,0.0075 -9.85e-5,0.00684 5.574e-4,0.012487 0.00167,0.01317 0.00111,6.559e-4 0.0013,0.00316 7.431e-4,0.00557 -5.573e-4,0.0024 9.85e-5,0.018222 0.00149,0.03515 0.00541,0.063711 0.00639,0.095354 0.00732,0.2339384 L 5.810937,3.2978431 5.790471,3.3166711 C 5.7792081,3.3270257 5.6780896,3.419577 5.5657551,3.5223386 5.4534224,3.6251002 5.3524618,3.7174793 5.3414,3.7276252 c -0.011054,0.010145 -0.020554,0.018446 -0.021092,0.018446 -5.574e-4,0 -0.0013,-0.094024 -0.00186,-0.2089404 C 5.3180764,3.4222134 5.317148,3.3063909 5.316588,3.2797483 L 5.3156629,3.2313064 5.434212,3.1080797 C 5.4994141,3.0403045 5.5481071,2.9892009 5.5424183,2.9945152 5.5367332,2.9998298 5.4831094,3.0545312 5.423258,3.116074 L 5.3144386,3.2279698 5.3142899,3.4355686 c -1.467e-4,0.2071463 0.0013,0.3034013 0.00477,0.3127703 0.00167,0.00444 0.00111,0.00569 -0.00438,0.01208 -0.00342,0.00392 -0.00689,0.00713 -0.00773,0.00713 -9.289e-4,0 -0.00149,-0.1155748 -0.00149,-0.2716108 z m 0.3007639,-0.564152 c 0.089224,-0.090207 0.1562714,-0.1521192 0.164734,-0.1521192 0.00723,0 0.012838,0.013276 0.019591,0.046416 0.00414,0.020327 0.00613,0.026002 0.00613,0.017532 0,-0.012234 -0.010813,-0.052194 -0.016609,-0.061374 -0.00433,-0.00686 -0.00992,-0.00735 -0.018337,-0.0016 -0.00946,0.00645 -0.02789,0.022144 -0.045198,0.038469 -0.022447,0.021173 -0.1175087,0.1162599 -0.1361618,0.1361987 -0.024407,0.026089 -0.012541,0.0153 0.025852,-0.023526 z"
       id="path1374" />
    <path
       style="fill:#000000;stroke-width:0.045298"
       d="M 0.08830773,13.553363 C -1.5473833,13.375517 -3.0104991,12.353586 -3.7374677,10.881206 -4.4354243,9.4675832 -4.3550629,7.8028706 -3.5224296,6.4264897 -2.9120961,5.4175847 -1.8308624,4.6114708 -0.65204835,4.2864808 -0.24378342,4.1739241 -0.13055973,4.1626527 0.60431543,4.1613906 1.227131,4.1603104 1.4866594,4.1785055 1.7383003,4.2408138 2.3897927,4.4021494 2.9329486,4.6542228 3.5183028,5.0668947 L 3.8746948,5.3181513 4.3596169,4.8585718 4.8445388,4.3989922 V 3.7243129 3.0496359 L 5.4536509,2.4501336 C 6.0864424,1.8273255 6.1915201,1.7662184 6.3407315,1.9342595 c 0.060876,0.068556 0.074261,0.1880685 0.074261,0.6630878 V 3.1768049 H 7.017534 c 0.4879371,0 0.6159521,0.013679 0.6730516,0.071862 0.148522,0.1513694 0.08499,0.2576571 -0.5246204,0.8776754 L 6.5708345,4.7316318 H 5.8830765 5.1953183 L 4.7622376,5.1458813 C 4.5240436,5.3737198 4.3142892,5.5872096 4.2961183,5.6203023 4.2754453,5.6579478 4.3650787,5.8238474 4.5355632,6.0634909 5.6124017,7.577165 5.7598979,9.351703 4.943421,10.970452 4.0599618,12.722005 2.0884669,13.770837 0.08830773,13.553363 Z M 1.7578323,12.945981 C 3.280287,12.54801 4.4462394,11.368033 4.8522185,9.814377 4.9618231,9.3949261 4.9837787,8.4728196 4.8942959,8.0470694 4.7647968,7.4309128 4.2905736,6.4566131 3.9714501,6.1510651 L 3.8576454,6.042102 3.532214,6.3590077 C 3.3532251,6.5333047 2.9494107,6.9258541 2.6348501,7.231335 L 2.0629196,7.7867586 2.2310186,8.1455649 C 2.3836014,8.4712507 2.398804,8.5381382 2.3957041,8.8702116 2.3916112,9.3096123 2.2632472,9.6413593 1.9733116,9.9619322 1.3715549,10.627276 0.45049031,10.774192 -0.30300113,10.325022 -0.58711638,10.155652 -0.92259796,9.7561462 -1.032811,9.4559271 -1.225584,8.9308215 -1.1336544,8.2652052 -0.81088175,7.849039 -0.2540309,7.1310675 0.587351,6.9316411 1.4312286,7.3176105 L 1.6988394,7.440008 2.0265437,7.1363229 C 2.2067815,6.9692932 2.6142515,6.568595 2.9320307,6.2458827 L 3.5098131,5.6591299 3.2236878,5.4522353 C 2.4239464,4.8739555 1.6047492,4.6178022 0.58188067,4.6261781 0.08803425,4.6302196 -0.10675515,4.6529023 -0.47256746,4.7489517 -2.0837459,5.1719984 -3.3027309,6.4406632 -3.615627,8.0201053 c -0.1035489,0.5226919 -0.070833,1.4802334 0.067326,1.9704962 0.1867303,0.6626255 0.5426558,1.2687945 1.0514644,1.7907325 0.6622152,0.679301 1.3861157,1.060968 2.38096879,1.255331 0.47433967,0.09267 1.33085641,0.05122 1.87370051,-0.09068 z M 1.0608957,10.029727 C 1.2817243,9.9615778 1.5985389,9.6905444 1.736042,9.4521434 1.8460325,9.261445 1.8606328,9.1903782 1.8602892,8.8473467 1.8600849,8.560614 1.8387704,8.4189992 1.7793556,8.3075359 L 1.6988097,8.1564324 1.2262978,8.6162151 C 0.74524728,9.0843042 0.59549722,9.1630444 0.45624266,9.0211207 0.31966585,8.8819259 0.39569342,8.7381155 0.84939415,8.2774512 1.3387984,7.7805395 1.3467475,7.7500269 1.0093534,7.6634426 0.52369985,7.5388104 0.06726172,7.6454848 -0.24741965,7.9571918 c -0.27688739,0.2742618 -0.38022199,0.516183 -0.38022199,0.8901549 0,0.8824943 0.81378615,1.4523403 1.68853734,1.1823803 z M 6.6330417,3.9778968 6.9309983,3.6814639 6.5930678,3.6805958 6.2551374,3.6797277 5.9973265,3.9452528 C 5.8555296,4.091289 5.7535221,4.225051 5.7706415,4.2424985 c 0.017111,0.017439 0.1511219,0.031723 0.297787,0.031723 H 6.3350873 Z M 5.9214199,3.0314927 c 0,-0.1715935 -0.015775,-0.3119897 -0.035055,-0.3119897 -0.019273,0 -0.1505281,0.1189229 -0.2916571,0.2642741 L 5.3381097,3.2480532 V 3.5583574 3.8686637 L 5.6297648,3.6060731 5.9214199,3.3434846 Z"
       id="path451" />
    <path
       id="path1332"
       d="m 5.7063776,0.65354875 c -0.2249609,0.0904558 -0.3106,0.2375406 -0.2867334,0.49242765 0.014762,0.1581145 0.042066,0.2142649 0.1539082,0.3164123 0.1220343,0.1114985 0.1581783,0.1241694 0.3542181,0.1241694 0.1562687,0 0.2518729,-0.021091 0.3363558,-0.074427 0.3457348,-0.2180149 0.310101,-0.68675804 -0.06479,-0.85257211 -0.208685,-0.0922958 -0.2762969,-0.0931244 -0.4929571,-0.00608 z m 0.589522,0.164399 c 0.1014367,0.10232488 0.1254856,0.15813077 0.1254856,0.29118885 0,0.1423662 -0.01951,0.1809007 -0.1443972,0.2852058 C 6.0791833,1.5595647 5.8408638,1.564391 5.6387903,1.4072029 5.4070782,1.2270285 5.4069336,0.969462 5.6384069,0.77945752 c 0.085759,-0.0703815 0.1501643,-0.0881422 0.3196773,-0.0881422 0.1923886,0 0.2240525,0.01189 0.3377872,0.12656921 z"
       style="fill:#000000;fill-opacity:1;fill-rule:nonzero;stroke-width:0.0380499;stroke-miterlimit:4;stroke-dasharray:none" />
    <path
       style="mix-blend-mode:overlay;fill:#ffcb05;fill-opacity:1;stroke-width:0.0305236"
       id="path469"
       sodipodi:type="arc"
       sodipodi:cx="0.25229609"
       sodipodi:cy="9.1596451"
       sodipodi:rx="1.3744739"
       sodipodi:ry="1.4906595"
       sodipodi:start="6.1759697"
       sodipodi:end="6.1735204"
       sodipodi:arc-type="slice"
       d="M 1.6188777,9.0001291 A 1.3744739,1.4906595 0 0 1 0.40021574,10.641647 1.3744739,1.4906595 0 0 1 -1.1141043,9.320976 1.3744739,1.4906595 0 0 1 0.10270308,7.6778406 1.3744739,1.4906595 0 0 1 1.6185133,8.9964995 L 0.25229609,9.1596451 Z" />
    <path
       style="fill:#000000;fill-opacity:1;fill-rule:nonzero;stroke-width:0.0284134;stroke-miterlimit:4;stroke-dasharray:none"
       d="M 6.4069326,6.6539369 C 6.2364637,6.7205009 6.1715689,6.828735 6.1896543,7.0162988 c 0.011186,0.1163514 0.031876,0.1576707 0.1166271,0.2328375 0.092474,0.082047 0.119863,0.091372 0.2684164,0.091372 0.1184158,0 0.1908619,-0.015516 0.2548806,-0.054769 C 7.0915663,7.1253079 7.064564,6.780376 6.7804797,6.6583586 6.6223441,6.5904401 6.5711125,6.5898305 6.406931,6.6538844 Z M 6.853655,6.7749125 c 0.076866,0.075297 0.095089,0.1163638 0.095089,0.2142765 0,0.1047635 -0.014784,0.1331197 -0.10942,0.2098739 C 6.6894363,7.320644 6.5088421,7.3241967 6.3557166,7.2085246 6.1801318,7.0759405 6.1800223,6.886405 6.3554258,6.7465867 c 0.064986,-0.051791 0.1137902,-0.06486 0.2422422,-0.06486 0.1457866,0 0.1697805,0.00874 0.2559654,0.093139 z"
       id="path1328" />
    <path
       transform="matrix(0.24762726,-0.29371802,0.28236587,0.25728547,-17.745379,26.342654)"
       inkscape:transform-center-y="0.22935803"
       inkscape:transform-center-x="-0.16876378"
       inkscape:randomized="0"
       inkscape:rounded="0"
       inkscape:flatsided="false"
       sodipodi:arg2="1.6604907"
       sodipodi:arg1="1.0321722"
       sodipodi:r2="1.0198911"
       sodipodi:r1="2.0397823"
       sodipodi:cy="9.0111418"
       sodipodi:cx="94.168579"
       sodipodi:sides="5"
       id="path1190"
       style="fill:#ffcb05;fill-opacity:1;stroke:none;stroke-width:0.264583;stroke-miterlimit:4;stroke-dasharray:none;stroke-opacity:1"
       sodipodi:type="star"
       d="M 95.214896,10.762122 94.077223,10.026933 92.826628,10.547331 93.174274,9.238154 92.29289,8.2095789 93.64542,8.1356517 94.351291,6.9795591 94.839555,8.243047 96.15719,8.5571175 95.106424,9.4119232 Z" />
    <path
       transform="matrix(0.20586596,0.11449901,-0.13644758,0.21557503,-10.6364,-8.5720717)"
       inkscape:transform-center-y="0.026463942"
       inkscape:transform-center-x="-0.16782243"
       inkscape:randomized="0"
       inkscape:rounded="0"
       inkscape:flatsided="false"
       sodipodi:arg2="1.4274145"
       sodipodi:arg1="0.79909594"
       sodipodi:r2="1.1023412"
       sodipodi:r1="2.2046824"
       sodipodi:cy="14.434911"
       sodipodi:cx="98.930389"
       sodipodi:sides="5"
       id="path1194"
       style="fill:#ffcb05;fill-opacity:1;stroke:none;stroke-width:0.264583;stroke-miterlimit:4;stroke-dasharray:none;stroke-opacity:1"
       sodipodi:type="star"
       d="m 100.46784,16.015064 -1.379936,-0.489124 -1.185232,0.859463 0.03876,-1.46354 -1.183654,-0.861635 1.403887,-0.415394 0.453694,-1.391982 0.828888,1.206813 1.464052,0.0013 -0.89161,1.161245 z" />
    <path
       id="path3842"
       d="M 8.3111238,1.7357208 C 8.2524568,1.6349978 8.2044567,1.5334223 8.2044567,1.5100022 c 0,-0.097955 -0.083479,-0.1157756 -0.3844242,-0.082049 -0.1626343,0.018209 -0.304067,0.0249 -0.3142833,0.014847 C 7.4955272,1.4327372 7.5806442,1.331468 7.6948944,1.2177881 7.8091468,1.104108 7.9026213,0.99310875 7.9026213,0.97111425 c 0,-0.02199 -0.058486,-0.1520783 -0.1299749,-0.28908325 C 7.7011537,0.54502975 7.6533856,0.42640685 7.666493,0.41842132 7.679587,0.41043932 7.8146451,0.46502912 7.9666059,0.53974224 L 8.2428991,0.67557988 8.4711104,0.45225559 C 8.5966255,0.32942171 8.7071469,0.24160581 8.7167079,0.2571031 c 0.00957,0.0155044 -0.00312,0.13235761 -0.028209,0.25968521 -0.071784,0.36445724 -0.078773,0.34797484 0.2103608,0.49608319 0.1420359,0.072763 0.2630116,0.1480086 0.2688336,0.1672179 0.00623,0.020702 -0.1119769,0.052033 -0.2897511,0.076846 -0.3377479,0.047145 -0.29348,-0.00332 -0.3749114,0.4264584 -0.021624,0.1141292 -0.049658,0.2138056 -0.062286,0.2214951 -0.012647,0.00769 -0.070959,-0.068415 -0.1296261,-0.1691391 z M 8.4556815,1.4324084 c 0.027308,-0.2004324 0.080246,-0.2376659 0.3378553,-0.2376659 0.2037556,0 0.1929226,-0.06632 -0.027343,-0.1673092 l -0.1760686,-0.080732 0.00998,-0.2397734 c 0.0055,-0.13187529 -0.00173,-0.23977333 -0.015631,-0.23977333 -0.014102,0 -0.095516,0.0679123 -0.1809738,0.15092259 L 8.2481222,0.76899085 8.0595314,0.67778299 C 7.9558103,0.62761682 7.8599865,0.59737085 7.8465958,0.61058159 7.8331844,0.62379966 7.8666271,0.71550725 7.920892,0.81441395 L 8.0195339,0.99423985 7.8545363,1.1594291 C 7.6680395,1.346151 7.6879756,1.3862869 7.9389069,1.329253 8.1597855,1.2790442 8.1585934,1.2784624 8.2753795,1.4945414 8.3957837,1.7173087 8.4178687,1.7096981 8.4556631,1.4324074 Z"
       style="fill:#000000;fill-opacity:1;fill-rule:nonzero;stroke-width:0.033304;stroke-miterlimit:4;stroke-dasharray:none" />
    <path
       id="path1330"
       d="m 7.8390048,6.2335659 c -0.049383,-0.064217 -0.089775,-0.1289767 -0.089775,-0.1439118 0,-0.062481 -0.070279,-0.073813 -0.3235456,-0.052284 -0.1368829,0.011659 -0.2559132,0.015895 -0.2645104,0.00948 -0.00858,-0.00652 0.063065,-0.070942 0.1591916,-0.1434543 0.096159,-0.072483 0.1748326,-0.143252 0.1748326,-0.1572762 0,-0.01402 -0.049232,-0.096962 -0.1093894,-0.184316 -0.060209,-0.087346 -0.1003749,-0.1629743 -0.089354,-0.1680651 0.011043,-0.00506 0.1246973,0.029728 0.2525916,0.077349 l 0.2325369,0.086608 0.1920754,-0.1423859 c 0.105638,-0.07832 0.1986618,-0.1343074 0.2067048,-0.1244219 0.00805,0.0099 -0.00226,0.084389 -0.023748,0.1655684 -0.060432,0.2323604 -0.066294,0.2218525 0.1770496,0.3162842 0.1195435,0.046429 0.2213584,0.094368 0.2262619,0.1066189 0.00526,0.013233 -0.094241,0.033177 -0.2438648,0.04903 -0.284266,0.030069 -0.2470048,-0.00217 -0.3155436,0.2719025 -0.018206,0.072764 -0.041793,0.1363092 -0.052389,0.1412126 -0.010674,0.00506 -0.059756,-0.043606 -0.1091015,-0.1078335 z M 7.9606683,6.0401815 c 0.02302,-0.1277845 0.067571,-0.151533 0.2843465,-0.151533 0.1714948,0 0.1623798,-0.042305 -0.02302,-0.1066676 l -0.1481874,-0.051489 0.00834,-0.1528788 c 0.00449,-0.084078 -0.00151,-0.1528713 -0.013154,-0.1528713 -0.011899,0 -0.080389,0.043317 -0.152314,0.09622 L 7.7859023,5.6171847 7.6271839,5.5590412 c -0.087295,-0.031977 -0.1679425,-0.051272 -0.179214,-0.042811 -0.011294,0.0084 0.01683,0.066893 0.062538,0.129955 l 0.08302,0.1146526 -0.1388656,0.1053218 C 7.2976955,5.9852095 7.3144811,6.0108024 7.5256941,5.9744393 7.7115919,5.9423873 7.7105925,5.9421243 7.8088797,6.0798211 7.9102246,6.2218509 7.9288115,6.217 7.9606151,6.0401931 Z"
       style="fill:#000000;fill-opacity:1;fill-rule:nonzero;stroke-width:0.0243962;stroke-miterlimit:4;stroke-dasharray:none" />
    <ellipse
       ry="0.43910232"
       rx="0.54299736"
       cy="2.8332756"
       cx="8.1451759"
       id="path1196"
       style="fill:#ffcb05;fill-opacity:1;stroke:none;stroke-width:0.119831;stroke-miterlimit:4;stroke-dasharray:none;stroke-opacity:1" />
    <path
       id="path3838"
       d="M 8.0215955,3.181992 C 7.8527717,3.1215034 7.7675002,3.0268185 7.7176839,2.8445349 7.6692772,2.6674173 7.7224657,2.4799132 7.8584735,2.3482736 8.0118809,2.1997801 8.2926599,2.1773568 8.4703871,2.2994083 8.6425641,2.4176431 8.6922292,2.5279589 8.676091,2.7563082 8.6601031,2.982427 8.5349501,3.1426526 8.3291731,3.2004034 c -0.1541268,0.04326 -0.1317,0.044603 -0.3075772,-0.018452 z M 8.3402198,3.1139852 C 8.5160623,3.0397581 8.6146903,2.8933003 8.6146903,2.7064213 8.6146903,2.5747742 8.5939828,2.5281758 8.4876827,2.420791 8.3813992,2.3134059 8.3352711,2.2924757 8.2049692,2.2924757 c -0.2641496,0 -0.4802984,0.2523152 -0.4307176,0.5027852 0.023562,0.1189391 0.2067206,0.3157345 0.3192306,0.3429705 0.1175084,0.028427 0.1232528,0.02788 0.2467369,-0.024234 z"
       style="fill:#000000;fill-opacity:1;fill-rule:nonzero;stroke-width:0.0361304;stroke-miterlimit:4;stroke-dasharray:none" />
    <ellipse
       style="display:inline;fill:#ffcb05;fill-opacity:1;stroke:none;stroke-width:0.0984634;stroke-miterlimit:4;stroke-dasharray:none;stroke-opacity:1"
       id="path1196-8"
       cx="2.8004961"
       cy="2.6181238"
       rx="0.42069381"
       ry="0.38265452" />
    <path
       id="path3836"
       d="M 2.6513231,2.1335793 C 2.4607466,2.2109373 2.3881918,2.336727 2.4084089,2.5547178 c 0.012543,0.1352259 0.03567,0.1832487 0.1303864,0.2706 0.103386,0.095362 0.1340043,0.1062016 0.3000853,0.1062016 0.132381,0 0.2133726,-0.01807 0.2849497,-0.06366 C 3.4167168,2.6814068 3.3865362,2.2805266 3.068942,2.1387216 2.8921506,2.059781 2.8348716,2.0590763 2.6513245,2.1335921 Z m 0.4994192,0.1406021 c 0.085936,0.0875 0.1063103,0.1352298 0.1063103,0.2490296 0,0.1217551 -0.016537,0.154714 -0.122326,0.2439166 C 2.9671494,2.9084272 2.7652503,2.912558 2.5940661,2.7781443 2.3977648,2.624052 2.3976387,2.4037757 2.5937363,2.241277 2.6663893,2.181081 2.7209485,2.165893 2.8645612,2.165893 c 0.1629877,0 0.1898081,0.010162 0.2861561,0.1082437 z"
       style="fill:#000000;fill-opacity:1;fill-rule:nonzero;stroke-width:0.0323876;stroke-miterlimit:4;stroke-dasharray:none" />
    <ellipse
       ry="0.47228023"
       rx="0.49527124"
       cy="0.99811429"
       cx="3.5438673"
       id="path1196-8-6"
       style="display:inline;fill:#ffcb05;fill-opacity:1;stroke:none;stroke-width:0.118689;stroke-miterlimit:4;stroke-dasharray:none;stroke-opacity:1" />
    <path
       style="fill:#000000;fill-opacity:1;fill-rule:nonzero;stroke-width:0.035817;stroke-miterlimit:4;stroke-dasharray:none"
       d="M 3.3923985,1.2988337 C 3.1856319,1.2116367 3.1069144,1.0698438 3.1288479,0.82411436 3.1424643,0.67168683 3.167548,0.61755694 3.2703111,0.51909148 3.3824789,0.41159862 3.4156956,0.39937907 3.5958868,0.39937907 c 0.1436268,0 0.2314955,0.0203815 0.3091551,0.071757 C 4.2228083,0.6813102 4.1900644,1.1331912 3.8454909,1.293036 3.6536821,1.382024 3.5915375,1.382817 3.3923988,1.298836 Z M 3.9342407,1.1403428 c 0.093238,-0.098633 0.1153418,-0.15243434 0.1153418,-0.28071094 0,-0.13724426 -0.017937,-0.1743971 -0.1327192,-0.27494819 C 3.7350513,0.42540603 3.5160021,0.42075281 3.330275,0.57222619 3.1173017,0.74591953 3.1171646,0.99422276 3.329977,1.1773938 c 0.078828,0.067855 0.1380198,0.084975 0.2938304,0.084975 0.1768328,0 0.2059325,-0.011436 0.3104661,-0.1220131 z"
       id="path3863" />
    <path
       sodipodi:type="star"
       style="display:inline;fill:#ffcb05;fill-opacity:1;stroke:none;stroke-width:0.264583;stroke-miterlimit:4;stroke-dasharray:none;stroke-opacity:1"
       id="path1190-4"
       sodipodi:sides="5"
       sodipodi:cx="94.168579"
       sodipodi:cy="9.0111418"
       sodipodi:r1="2.0397823"
       sodipodi:r2="1.0198911"
       sodipodi:arg1="1.0321722"
       sodipodi:arg2="1.6604907"
       inkscape:flatsided="false"
       inkscape:rounded="0"
       inkscape:randomized="0"
       inkscape:transform-center-x="0.024219223"
       inkscape:transform-center-y="0.26647824"
       transform="matrix(0.21353751,-0.17549521,0.17705889,0.20313158,-13.055798,18.871405)"
       d="M 95.214896,10.762122 94.077223,10.026933 92.826628,10.547331 93.174274,9.238154 92.29289,8.2095789 93.64542,8.1356517 94.351291,6.9795591 94.839555,8.243047 96.15719,8.5571175 95.106424,9.4119232 Z" />
    <path
       style="fill:#000000;fill-opacity:1;fill-rule:nonzero;stroke-width:0.0236674;stroke-miterlimit:4;stroke-dasharray:none"
       d="m 8.7467459,4.4664894 c -0.045007,-0.066308 -0.081828,-0.133173 -0.081828,-0.1485912 0,-0.064484 -0.064046,-0.076214 -0.2949175,-0.054015 -0.1247682,0.011981 -0.2332654,0.016401 -0.2411017,0.00978 -0.00784,-0.00662 0.057455,-0.073288 0.1451047,-0.1481223 0.08765,-0.074839 0.159356,-0.1479114 0.159356,-0.1623873 0,-0.014494 -0.044868,-0.1001153 -0.099707,-0.1903048 -0.054849,-0.090189 -0.091494,-0.1682791 -0.081442,-0.1735337 0.010052,-0.00523 0.1136619,0.030686 0.2302381,0.079862 l 0.2119568,0.089429 0.1750761,-0.147014 c 0.096292,-0.080867 0.181079,-0.1386744 0.1884141,-0.1284726 0.0073,0.010208 -0.00219,0.087134 -0.021657,0.1709535 -0.05507,0.2399228 -0.060433,0.2290721 0.1613828,0.3265725 0.1089609,0.047904 0.2017708,0.097436 0.2062364,0.1100815 0.00476,0.013641 -0.085903,0.034236 -0.2222862,0.050587 -0.259103,0.031032 -0.2251417,-0.00216 -0.2876138,0.2807373 -0.016572,0.075133 -0.038093,0.1407475 -0.04778,0.1458113 -0.0097,0.00507 -0.054442,-0.045039 -0.099448,-0.1113424 z m 0.1108983,-0.199672 c 0.020951,-0.1319434 0.06156,-0.1564596 0.2591861,-0.1564596 0.1563122,0 0.1480025,-0.043659 -0.020951,-0.1101399 l -0.1350742,-0.053145 0.0076,-0.1578439 c 0.00438,-0.086815 -0.00131,-0.157844 -0.011982,-0.157844 -0.010852,0 -0.073278,0.044704 -0.1388359,0.099348 l -0.1191996,0.099348 -0.1446762,-0.06004 c -0.079571,-0.033024 -0.1530802,-0.052938 -0.1633555,-0.044238 -0.010287,0.00871 0.015348,0.069072 0.056996,0.1341803 l 0.07567,0.1183785 -0.1265785,0.1087444 c -0.1430731,0.1229195 -0.1277767,0.1493428 0.064726,0.1117956 0.1694477,-0.033067 0.168532,-0.033414 0.2581235,0.1088094 0.092372,0.1466505 0.109314,0.1416382 0.1383062,-0.040901 z"
       id="path3867" />
    <path
       style="fill:#000000;fill-opacity:1;fill-rule:nonzero;stroke-width:0.0179948;stroke-miterlimit:4;stroke-dasharray:none"
       d="m 1.5392923,1.2738004 c -0.032387,-0.053293 -0.058851,-0.1070431 -0.058851,-0.1194352 0,-0.051834 -0.046058,-0.06126 -0.2120961,-0.04342 -0.089737,0.00963 -0.167763,0.013181 -0.1734033,0.00787 -0.00562,-0.00535 0.041326,-0.05891 0.1043581,-0.11906234 0.063036,-0.060152 0.1146129,-0.118891 0.1146129,-0.1305308 0,-0.01162 -0.032281,-0.08047 -0.071714,-0.1529627 -0.039445,-0.072499 -0.065801,-0.1352635 -0.058567,-0.1394932 0.00721,-0.00427 0.08174,0.024632 0.1655806,0.064195 l 0.1524394,0.071883 0.1259146,-0.1181712 c 0.069253,-0.065 0.130228,-0.111468 0.1355031,-0.1032622 0.00528,0.00819 -0.00176,0.070034 -0.015577,0.1374097 -0.039606,0.1928489 -0.043459,0.1841294 0.1160609,0.2625032 0.078365,0.038518 0.1451145,0.078315 0.1483246,0.088483 0.00352,0.010948 -0.061781,0.027518 -0.1598628,0.040651 -0.1863478,0.024925 -0.1619239,-0.00167 -0.206853,0.2256579 -0.011924,0.060391 -0.027394,0.1131373 -0.034357,0.1172065 -0.00697,0.00418 -0.039151,-0.036218 -0.071521,-0.089498 z M 1.6190503,1.113304 c 0.015085,-0.1060609 0.044273,-0.12575914 0.1864046,-0.12575914 0.1124211,0 0.1064439,-0.035088 -0.015085,-0.088533 l -0.097143,-0.042722 0.00549,-0.1268756 c 0.00316,-0.069785 -7.034e-4,-0.12688 -0.00857,-0.12688 -0.00778,0 -0.052698,0.035925 -0.099844,0.079863 l -0.085733,0.0798552 -0.1040534,-0.0482632 c -0.057231,-0.026558 -0.1100969,-0.042546 -0.1174824,-0.035548 -0.00734,0.00698 0.011035,0.055528 0.040987,0.1078582 l 0.054424,0.095154 -0.091035,0.087417 c -0.1028988,0.098805 -0.091893,0.12003784 0.046548,0.089853 0.121864,-0.026558 0.1212092,-0.02685 0.1856456,0.087471 0.066429,0.1178743 0.078615,0.1138484 0.099467,-0.032873 z"
       id="path3855" />
  </g>
  <text
     style="font-style:normal;font-weight:normal;font-size:10.5833px;line-height:1.25;font-family:sans-serif;white-space:pre;shape-inside:url(#rect1278);fill:#000000;fill-opacity:1;stroke:none;"
     id="text1276"
     xml:space="preserve"><tspan
       style="visibility:hidden"
       x="-64.744141"
       y="95.069528"><tspan
         style="font-size:3.175px">O</tspan></tspan></text>
</svg>
