<?xml version="1.0" encoding="UTF-8" standalone="no"?>
<svg
   xmlns:osb="http://www.openswatchbook.org/uri/2009/osb"
   xmlns:dc="http://purl.org/dc/elements/1.1/"
   xmlns:cc="http://creativecommons.org/ns#"
   xmlns:rdf="http://www.w3.org/1999/02/22-rdf-syntax-ns#"
   xmlns:svg="http://www.w3.org/2000/svg"
   xmlns="http://www.w3.org/2000/svg"
   xmlns:sodipodi="http://sodipodi.sourceforge.net/DTD/sodipodi-0.dtd"
   xmlns:inkscape="http://www.inkscape.org/namespaces/inkscape"
   inkscape:export-ydpi="85.333336"
   inkscape:export-xdpi="85.333336"
   inkscape:export-filename="C:\Users\USER\Desktop\icons\favicon-32x32.png"
   id="svg8"
   version="1.1"
   viewBox="0 0 9.5249994 9.5250003"
   height="36"
   width="36"
   sodipodi:docname="favicon-32x32.svg"
   inkscape:version="1.0 (4035a4fb49, 2020-05-01)">
  <title
     id="title4063">Management Icon</title>
  <sodipodi:namedview
     units="px"
     inkscape:current-layer="layer1"
     inkscape:window-maximized="1"
     inkscape:window-y="-9"
     inkscape:window-x="-9"
     inkscape:cy="37.578848"
     inkscape:cx="23.657985"
     inkscape:zoom="7.0308339"
     inkscape:lockguides="false"
     inkscape:snap-global="false"
     inkscape:snap-nodes="false"
     showgrid="false"
     id="namedview18"
     inkscape:window-height="1001"
     inkscape:window-width="1920"
     inkscape:pageshadow="2"
     inkscape:pageopacity="0"
     guidetolerance="10"
     gridtolerance="10"
     objecttolerance="10"
     borderopacity="1"
     bordercolor="#666666"
     pagecolor="#ffffff"
     inkscape:document-rotation="0" />
  <defs
     id="defs2">
    <inkscape:path-effect
       effect="skeletal"
       id="path-effect1241"
       is_visible="true"
       lpeversion="1"
       pattern="M 0,5 C 0,2.24 2.24,0 5,0 7.76,0 10,2.24 10,5 10,7.76 7.76,10 5,10 2.24,10 0,7.76 0,5 Z"
       copytype="single_stretched"
       prop_scale="1"
       scale_y_rel="false"
       spacing="0"
       normal_offset="0"
       tang_offset="0"
       prop_units="false"
       vertical_pattern="false"
       hide_knot="false"
       fuse_tolerance="0" />
    <inkscape:path-effect
       effect="skeletal"
       id="path-effect1237"
       is_visible="true"
       lpeversion="1"
       pattern="M 0,5 C 0,2.24 2.24,0 5,0 7.76,0 10,2.24 10,5 10,7.76 7.76,10 5,10 2.24,10 0,7.76 0,5 Z"
       copytype="single_stretched"
       prop_scale="1"
       scale_y_rel="false"
       spacing="0"
       normal_offset="0"
       tang_offset="0"
       prop_units="false"
       vertical_pattern="false"
       hide_knot="false"
       fuse_tolerance="0" />
    <inkscape:path-effect
       effect="fillet_chamfer"
       id="path-effect951"
       is_visible="true"
       lpeversion="1"
       satellites_param="F,0,0,1,0,0,0,1 @ F,0,0,1,0,5.6059793,0,1 @ F,0,0,1,0,0,0,1"
       unit="px"
       method="auto"
       mode="F"
       radius="0"
       chamfer_steps="1"
       flexible="false"
       use_knot_distance="true"
       apply_no_radius="true"
       apply_with_radius="true"
       only_selected="false"
       hide_knots="false" />
    <inkscape:path-effect
       effect="fillet_chamfer"
       id="path-effect917"
       is_visible="true"
       lpeversion="1"
       satellites_param="F,0,0,1,0,0,0,1 @ F,0,0,1,0,0,0,1 @ F,0,0,1,0,0,0,1 @ F,0,0,1,0,0,0,1 @ F,0,0,1,0,0,0,1 @ F,0,0,1,0,0,0,1 @ F,0,0,1,0,0,0,1 @ F,0,0,1,0,0,0,1 @ F,0,0,1,0,0,0,1 @ F,0,0,1,0,0,0,1 @ F,0,0,1,0,0,0,1 @ F,0,0,1,0,0,0,1 @ F,0,0,1,0,0,0,1 @ F,0,0,1,0,0,0,1 @ F,0,0,1,0,0,0,1 @ F,0,0,1,0,0,0,1 @ F,0,0,1,0,0,0,1 @ F,0,0,1,0,0,0,1 @ F,0,0,1,0,0,0,1 @ F,0,0,1,0,0,0,1 @ F,0,0,1,0,0,0,1 @ F,0,0,1,0,0,0,1 @ F,0,0,1,0,0,0,1 @ F,0,0,1,0,0,0,1 @ F,0,0,1,0,0,0,1 @ F,0,0,1,0,0,0,1 @ F,0,0,1,0,0,0,1 @ F,0,0,1,0,0,0,1 @ F,0,0,1,0,0,0,1 @ F,0,0,1,0,0,0,1 @ F,0,0,1,0,0,0,1 @ F,0,0,1,0,0,0,1 @ F,0,0,1,0,0,0,1 @ F,0,0,1,0,0,0,1 @ F,0,0,1,0,0,0,1 @ F,0,0,1,0,0,0,1 @ F,0,0,1,0,0,0,1 @ F,0,0,1,0,0,0,1 @ F,0,0,1,0,0,0,1 @ F,0,0,1,0,0,0,1 @ F,0,0,1,0,0,0,1 @ F,0,0,1,0,17.439858,0,1 @ F,0,0,1,0,0,0,1 @ F,0,0,1,0,0,0,1 @ F,0,0,1,0,0,0,1 @ F,0,0,1,0,0,0,1 @ F,0,0,1,0,0,0,1 @ F,0,0,1,0,0,0,1 | F,0,0,1,0,0,0,1 @ F,0,0,1,0,0,0,1 @ F,0,0,1,0,0,0,1 @ F,0,0,1,0,0,0,1 @ F,0,0,1,0,0,0,1 | F,0,0,1,0,0,0,1 @ F,0,0,1,0,0,0,1 @ F,0,0,1,0,0,0,1 @ F,0,0,1,0,0,0,1 @ F,0,0,1,0,0,0,1 @ F,0,0,1,0,0,0,1 @ F,0,0,1,0,0,0,1 @ F,0,0,1,0,0,0,1 @ F,0,0,1,0,0,0,1 @ F,0,0,1,0,0,0,1 @ F,0,0,1,0,0,0,1 @ F,0,0,1,0,0,0,1 @ F,0,0,1,0,0,0,1 @ F,0,0,1,0,0,0,1 @ F,0,0,1,0,0,0,1 @ F,0,0,1,0,0,0,1 @ F,0,0,1,0,0,0,1 @ F,0,0,1,0,0,0,1 @ F,0,0,1,0,0,0,1 | F,0,0,1,0,0,0,1 @ F,0,0,1,0,23.464394,0,1 @ F,0,0,1,0,0,0,1 @ F,0,0,1,0,0,0,1 @ F,0,0,1,0,0,0,1 @ F,0,0,1,0,0,0,1 @ F,0,0,1,0,0,0,1 @ F,0,0,1,0,0,0,1 @ F,0,0,1,0,0,0,1 @ F,0,0,1,0,0,0,1 @ F,0,0,1,0,0,0,1 @ F,0,0,1,0,0,0,1 @ F,0,0,1,0,0,0,1 @ F,0,0,1,0,0,0,1 | F,0,0,1,0,0,0,1 @ F,0,0,1,0,0,0,1 @ F,0,0,1,0,0,0,1 @ F,0,0,1,0,0,0,1 @ F,0,0,1,0,0,0,1 @ F,0,0,1,0,0,0,1 | F,0,0,1,0,0,0,1 @ F,0,0,1,0,0,0,1 @ F,0,0,1,0,0,0,1 | F,0,0,1,0,0,0,1 @ F,0,0,1,0,0,0,1 @ F,0,0,1,0,0,0,1 @ F,0,0,1,0,0,0,1 | F,0,0,1,0,0,0,1 @ F,0,0,1,0,0,0,1 @ F,0,0,1,0,0,0,1 @ F,0,0,1,0,0,0,1 @ F,0,0,1,0,0,0,1 @ F,0,0,1,0,0,0,1 | F,0,0,1,0,0,0,1 @ F,0,0,1,0,0,0,1 @ F,0,0,1,0,0,0,1 @ F,0,0,1,0,0,0,1"
       unit="px"
       method="auto"
       mode="F"
       radius="0"
       chamfer_steps="1"
       flexible="false"
       use_knot_distance="true"
       apply_no_radius="true"
       apply_with_radius="true"
       only_selected="false"
       hide_knots="false" />
    <rect
       id="rect1278"
       height="10.93295"
       width="28.698994"
       y="74.480721"
       x="-64.743561" />
    <inkscape:path-effect
       hide_knots="false"
       only_selected="false"
       apply_with_radius="true"
       apply_no_radius="true"
       use_knot_distance="true"
       flexible="false"
       chamfer_steps="1"
       radius="0"
       mode="F"
       method="auto"
       unit="px"
       satellites_param="F,0,0,1,0,7.6872305,0,1 @ F,0,0,1,0,7.8580579,0,1 @ F,0,0,1,0,0,0,1 @ F,0,0,1,0,0,0,1"
       lpeversion="1"
       is_visible="true"
       id="path-effect1083"
       effect="fillet_chamfer" />
    <inkscape:path-effect
       effect="fillet_chamfer"
       id="path-effect1053"
       is_visible="true"
       lpeversion="1"
       satellites_param="F,0,0,1,0,7.6872305,0,1 @ F,0,0,1,0,7.8580579,0,1 @ F,0,0,1,0,0,0,1 @ F,0,0,1,0,0,0,1"
       unit="px"
       method="auto"
       mode="F"
       radius="0"
       chamfer_steps="1"
       flexible="false"
       use_knot_distance="true"
       apply_no_radius="true"
       apply_with_radius="true"
       only_selected="false"
       hide_knots="false" />
    <inkscape:path-effect
       hide_knots="false"
       only_selected="false"
       apply_with_radius="true"
       apply_no_radius="true"
       use_knot_distance="true"
       flexible="false"
       chamfer_steps="1"
       radius="0"
       mode="F"
       method="auto"
       unit="px"
       satellites_param="F,0,0,1,0,7.6872305,0,1 @ F,0,0,1,0,7.8580579,0,1 @ F,0,0,1,0,0,0,1 @ F,0,0,1,0,0,0,1"
       lpeversion="1"
       is_visible="true"
       id="path-effect1029"
       effect="fillet_chamfer" />
    <linearGradient
       osb:paint="solid"
       id="linearGradient3721">
      <stop
         id="stop3719"
         offset="0"
         style="stop-color:#ffffff;stop-opacity:1;" />
    </linearGradient>
    <linearGradient
       osb:paint="solid"
       id="linearGradient1793">
      <stop
         id="stop1791"
         offset="0"
         style="stop-color:#ffffff;stop-opacity:1;" />
    </linearGradient>
  </defs>
  <metadata
     id="metadata5">
    <rdf:RDF>
      <cc:Work
         rdf:about="">
        <dc:format>image/svg+xml</dc:format>
        <dc:type
           rdf:resource="http://purl.org/dc/dcmitype/StillImage" />
        <dc:title>Management Icon</dc:title>
      </cc:Work>
    </rdf:RDF>
  </metadata>
  <path
     id="path3769"
     d=""
     style="fill:#000000;fill-opacity:1;fill-rule:nonzero;stroke-width:0.0384829;stroke-miterlimit:4;stroke-dasharray:none" />
  <path
     id="path3775"
     d=""
     style="fill:#ffff00;fill-opacity:1;fill-rule:nonzero;stroke-width:0.307864;stroke-miterlimit:4;stroke-dasharray:none" />
  <path
     id="path3777"
     d=""
     style="fill:#ffff00;fill-opacity:1;fill-rule:nonzero;stroke-width:0.307864;stroke-miterlimit:4;stroke-dasharray:none" />
  <path
     id="path3779"
     d=""
     style="fill:#ffff00;fill-opacity:1;fill-rule:nonzero;stroke-width:0.307864;stroke-miterlimit:4;stroke-dasharray:none" />
  <path
     id="path3781"
     d=""
     style="fill:#ffff00;fill-opacity:1;fill-rule:nonzero;stroke-width:0.307864;stroke-miterlimit:4;stroke-dasharray:none" />
  <path
     id="path3783"
     d=""
     style="fill:#ffff00;fill-opacity:1;fill-rule:nonzero;stroke-width:0.307864;stroke-miterlimit:4;stroke-dasharray:none" />
  <path
     id="path3785"
     d=""
     style="fill:#ffff00;fill-opacity:1;fill-rule:nonzero;stroke-width:0.307864;stroke-miterlimit:4;stroke-dasharray:none" />
  <path
     id="path3787"
     d=""
     style="fill:#ffff00;fill-opacity:1;fill-rule:nonzero;stroke-width:0.307864;stroke-miterlimit:4;stroke-dasharray:none" />
  <path
     id="path3840"
     d=""
     style="fill:#000000;fill-opacity:1;fill-rule:nonzero;stroke-width:0.307864;stroke-miterlimit:4;stroke-dasharray:none" />
  <path
     id="path3844"
     d=""
     style="fill:#000000;fill-opacity:1;fill-rule:nonzero;stroke-width:0.307864;stroke-miterlimit:4;stroke-dasharray:none" />
  <path
     id="path3857"
     d=""
     style="fill:#000000;fill-opacity:1;fill-rule:nonzero;stroke-width:0.307864;stroke-miterlimit:4;stroke-dasharray:none" />
  <path
     id="path3859"
     d=""
     style="fill:#000000;fill-opacity:1;fill-rule:nonzero;stroke-width:0.307864;stroke-miterlimit:4;stroke-dasharray:none" />
  <path
     style="fill:#000000;stroke-width:0.178888"
     d=""
     id="path41" />
  <path
     style="fill:#000000;stroke-width:0.178888"
     d=""
     id="path43" />
  <path
     style="fill:#000000;stroke-width:0.178888"
     d=""
     id="path45" />
  <path
     style="fill:#000000;stroke-width:0.211622"
     d=""
     id="path465" />
  <path
     style="fill:#ffff00;fill-opacity:1;stroke-width:0.00927714"
     d=""
     id="path1344" />
  <path
     style="fill:#ffff00;fill-opacity:1;stroke-width:0.00927714"
     d=""
     id="path1346" />
  <path
     style="fill:#ffff00;fill-opacity:1;stroke-width:0.00927714"
     d=""
     id="path1348" />
  <path
     style="fill:#ffff00;fill-opacity:1;stroke-width:0.00927714"
     d=""
     id="path1350" />
  <path
     style="fill:#ffff00;fill-opacity:1;stroke-width:0.00927714"
     d=""
     id="path1366" />
  <g
     style="display:inline"
     inkscape:label="Scroll"
     id="layer1"
     inkscape:groupmode="layer">
    <g
       transform="matrix(0.13548314,0,0,0.14700731,11.035024,2.6638247)"
       id="g107">
      <path
         id="rect3753"
         style="fill:none;fill-opacity:1;fill-rule:nonzero;stroke-width:0.264583;stroke-miterlimit:4;stroke-dasharray:none"
         d="M -5.6485316,-0.05353967 V 95.384043 H 113.18659 V -0.05353967 Z M 61.402155,74.873152 c 0.248359,0.03484 0.29972,0.341326 -0.04806,0.515213 -0.0684,0.0342 -0.136755,0.06864 -0.205155,0.102835 -0.05985,0.0299 -0.122034,0.0557 -0.179832,0.0894 -0.116642,0.06787 -0.190085,0.160171 -0.320395,0.211873 -0.04787,0.019 -0.09996,0.02543 -0.149863,0.03824 -0.01249,0.0033 -0.02471,0.0074 -0.03721,0.01138 -0.486302,0.146389 -0.628171,-0.363206 -0.137459,-0.494027 0.0259,-0.007 0.05203,-0.01418 0.07803,-0.02119 0.05977,0.02252 0.144949,-0.07292 0.177249,-0.09612 0.17068,-0.1226 0.356346,-0.210074 0.545187,-0.301273 0.05716,-0.02761 0.11061,-0.04491 0.159679,-0.05323 0.04294,-0.0073 0.08234,-0.0081 0.117822,-0.0031 z" />
      <g
         id="g1328">
        <path
           d="M 15.132875,3.0748923 H 78.851472 A 7.8580579,7.8580579 45 0 1 86.70953,10.93295 v 8.199714 H 7.4456444 V 10.762123 A 7.6872305,7.6872305 135 0 1 15.132875,3.0748923 Z"
           inkscape:path-effect="#path-effect1029"
           sodipodi:type="rect"
           y="3.0748923"
           x="7.4456444"
           height="16.057772"
           width="79.263885"
           id="rect185"
           style="fill:#ffffff;stroke:#000000;stroke-width:2.27012;stroke-miterlimit:4;stroke-dasharray:none" />
        <path
           d="M 16.520698,3.1129882 V 10.33632 c -0.008,0.143594 -0.01292,0.288417 -0.01292,0.434082 v 78.820511 c 0,4.211437 3.390166,7.601604 7.601603,7.601604 h 54.990443 c 4.211436,0 7.601603,-3.390167 7.601603,-7.601604 V 10.770402 c 0,-4.2114371 -3.390167,-7.6021201 -7.601603,-7.6021201 h -51.77255 v -0.055294 z"
           style="fill:#ffffff;stroke:#000000;stroke-width:2.27012;stroke-miterlimit:4;stroke-dasharray:none"
           id="rect183" />
        <path
           d="m 31.222642,81.311831 v 8.175212 a 7.6872305,7.6872305 0 0 1 -7.687385,7.687387 h -1.002523 a 7.858058,7.858058 0 0 0 1.741496,0.195336 h 63.718591 a 7.6872305,7.6872305 0 0 0 7.687384,-7.687386 v -8.370549 z"
           style="fill:#ffffff;stroke:#000000;stroke-width:2.27012;stroke-miterlimit:4;stroke-dasharray:none"
           id="rect185-0" />
      </g>
      <path
         id="path1255"
         d="m 28.827475,95.174872 c 1.82711,-2.080961 2.335041,-4.096877 2.335041,-9.267486 v -3.533709 h 30.915803 30.9158 v 4.231375 4.231376 l -0.705914,1.412658 c -0.739907,1.48068 -1.834099,2.526808 -3.368929,3.220934 -0.823645,0.372494 -2.979491,0.404863 -30.849112,0.463193 l -29.963583,0.06271 z"
         style="fill:#ffcb05;fill-opacity:1;stroke:none;stroke-width:0.230715" />
      <path
         id="path1251"
         d="m 9.6202244,14.079792 c 0.0057,-3.309649 0.1231239,-4.3592408 0.6038506,-5.3975618 0.731283,-1.5794972 2.059724,-2.8639304 3.648435,-3.5275732 2.289086,-0.9562054 2.185487,-1.2532624 2.185487,6.266634 v 6.767093 H 12.835572 9.6131473 Z"
         style="fill:#ffcb05;fill-opacity:1;stroke:none;stroke-width:0.322241" />
      <path
         sodipodi:nodetypes="ccc"
         inkscape:original-d="m 91.217669,85.141657 0.210702,9.199745 -43.472339,-0.02"
         inkscape:path-effect="#path-effect951"
         id="path949"
         d="m 91.217669,85.141657 0.08234,3.595235 a 5.4765347,5.4765347 134.35717 0 1 -5.477619,5.601931 l -37.86636,-0.01742"
         style="fill:none;stroke:#000000;stroke-width:1.2229;stroke-linecap:round;stroke-linejoin:round;stroke-miterlimit:4;stroke-dasharray:none;stroke-opacity:1" />
    </g>
  </g>
  <g
     style="display:inline"
     inkscape:label="Arrow"
     id="layer2"
     inkscape:groupmode="layer">
    <g
       transform="matrix(0.13510412,0,0,0.13363253,-3.3905289,-0.60548908)"
       id="g133">
      <path
         id="rect3717"
         style="fill:none;fill-opacity:1;fill-rule:nonzero;stroke-width:0.264583;stroke-miterlimit:4;stroke-dasharray:none;image-rendering:auto"
         d="M -7.187454,-13.599484 V 98.7704 H 115.3415 V -13.599484 Z m 68.589609,88.472636 c 0.248359,0.03484 0.29972,0.341326 -0.04806,0.515213 -0.0684,0.0342 -0.136755,0.06864 -0.205155,0.102835 -0.05985,0.0299 -0.122034,0.0557 -0.179832,0.0894 -0.116642,0.06787 -0.190085,0.160171 -0.320395,0.211873 -0.04787,0.019 -0.09996,0.02543 -0.149863,0.03824 -0.01249,0.0033 -0.02471,0.0074 -0.03721,0.01138 -0.486302,0.146389 -0.628171,-0.363206 -0.137459,-0.494027 0.0259,-0.007 0.05203,-0.01418 0.07803,-0.02119 0.05977,0.02252 0.144949,-0.07292 0.177249,-0.09612 0.17068,-0.1226 0.356346,-0.210074 0.545187,-0.301273 0.05716,-0.02761 0.11061,-0.04491 0.159679,-0.05323 0.04294,-0.0073 0.08234,-0.0081 0.117822,-0.0031 z" />
      <path
         id="rect3751"
         style="fill:none;fill-opacity:1;fill-rule:nonzero;stroke-width:0.264583;stroke-miterlimit:4;stroke-dasharray:none"
         d="M -10.881802,-2.823915 V 96.307503 H 112.57113 V -2.823915 Z m 72.283957,77.697067 c 0.248359,0.03484 0.29972,0.341326 -0.04806,0.515213 -0.0684,0.0342 -0.136755,0.06864 -0.205155,0.102835 -0.05985,0.0299 -0.122034,0.0557 -0.179832,0.0894 -0.116642,0.06787 -0.190085,0.160171 -0.320395,0.211873 -0.04787,0.019 -0.09996,0.02543 -0.149863,0.03824 -0.01249,0.0033 -0.02471,0.0074 -0.03721,0.01138 -0.486302,0.146389 -0.628171,-0.363206 -0.137459,-0.494027 0.0259,-0.007 0.05203,-0.01418 0.07803,-0.02119 0.05977,0.02252 0.144949,-0.07292 0.177249,-0.09612 0.17068,-0.1226 0.356346,-0.210074 0.545187,-0.301273 0.05716,-0.02761 0.11061,-0.04491 0.159679,-0.05323 0.04294,-0.0073 0.08234,-0.0081 0.117822,-0.0031 z" />
      <path
         style="fill:#000000;fill-opacity:1;fill-rule:nonzero;stroke-width:0.0660746;stroke-miterlimit:4;stroke-dasharray:none"
         d="m 68.959817,12.282847 c -0.37551,-0.16341 -0.51846,-0.42913 -0.47863,-0.88961 0.0247,-0.28565 0.0703,-0.38709 0.25691,-0.57161 0.2037,-0.20144 0.26402,-0.22434 0.59126,-0.22434 0.26083,0 0.4204,0.0382 0.56144,0.13447 0.57708,0.39386 0.51761,1.24068 -0.10815,1.54022 -0.34834,0.16677 -0.46119,0.16824 -0.82283,0.0109 z m 0.984,-0.29701 c 0.16933,-0.18484 0.20947,-0.28566 0.20947,-0.52605 0,-0.25719 -0.0326,-0.32681 -0.24103,-0.51525 -0.33017,-0.29847 -0.72798,-0.30719 -1.06527,-0.0233 -0.38676,0.32549 -0.38701,0.79081 -5.3e-4,1.13407 0.14315,0.12716 0.25065,0.15924 0.53361,0.15924 0.32113,0 0.37397,-0.0214 0.56381,-0.22865 z"
         id="path3865" />
      <path
         id="path1334"
         d="m 80.962193,26.300934 c -0.5221,-0.05646 -0.57073,-0.08964 -0.45323,-0.309195 0.0568,-0.106103 0.55783,-0.662159 1.11342,-1.235681 l 1.01017,-1.042765 1.51918,0.0047 1.51919,0.0047 -1.37148,1.320972 -1.37147,1.320975 -0.82288,-0.01458 c -0.45259,-0.008 -0.96689,-0.03016 -1.1429,-0.04919 z"
         style="fill:#ffcb05;fill-opacity:1;stroke-width:0.0914315" />
      <path
         id="path1374"
         d="m 77.664839,21.959113 v -1.407978 l 0.59605,-0.594206 c 1.07235,-1.06902 1.54699,-1.520987 1.82248,-1.735429 0.11392,-0.08867 0.13749,-0.09891 0.16097,-0.06991 0.0205,0.02532 0.0514,0.140195 0.0691,0.25727 0.0166,0.109813 0.027,0.28929 0.0148,0.254712 -0.006,-0.01797 -0.008,-0.0092 -0.009,0.03888 -5.3e-4,0.03548 0.003,0.06473 0.009,0.06827 0.006,0.0034 0.007,0.01638 0.004,0.02887 -0.003,0.01246 5.3e-4,0.09446 0.008,0.182213 0.0291,0.330266 0.0344,0.494297 0.0394,1.212691 l 0.005,0.737727 -0.11016,0.0976 c -0.0606,0.05368 -0.60487,0.533448 -1.20951,1.066144 -0.60463,0.532696 -1.14805,1.011571 -1.20759,1.064165 -0.0595,0.05259 -0.11063,0.09562 -0.11353,0.09562 -0.003,0 -0.007,-0.487399 -0.01,-1.083106 -0.002,-0.595709 -0.007,-1.19611 -0.01,-1.33422 l -0.005,-0.251113 0.63809,-0.638783 c 0.35095,-0.351333 0.61304,-0.616244 0.58242,-0.588696 -0.0306,0.02755 -0.31923,0.311111 -0.64138,0.630137 l -0.58572,0.580046 -8e-4,1.076151 c -7.9e-4,1.073806 0.007,1.572773 0.0257,1.62134 0.009,0.02302 0.006,0.02949 -0.0236,0.06262 -0.0184,0.02032 -0.0371,0.03695 -0.0416,0.03695 -0.005,0 -0.008,-0.599117 -0.008,-1.407977 z m 1.61886,-2.924453 c 0.48025,-0.467614 0.84113,-0.788556 0.88668,-0.788556 0.0389,0 0.0691,0.06882 0.10545,0.240609 0.0223,0.105371 0.033,0.13479 0.033,0.09088 0,-0.06342 -0.0582,-0.270563 -0.0894,-0.318148 -0.0233,-0.03556 -0.0534,-0.03808 -0.0987,-0.0083 -0.0509,0.03346 -0.15012,0.11479 -0.24328,0.199417 -0.12082,0.109754 -0.63249,0.602668 -0.73289,0.706027 -0.13137,0.135242 -0.0675,0.07931 0.13915,-0.121954 z"
         style="fill:#ffcb05;fill-opacity:1;stroke-width:0.00927714" />
      <path
         id="path451"
         d="M 49.582635,74.094823 C 40.778536,73.172909 32.903322,67.875419 28.990417,60.242888 25.233669,52.914946 25.666214,44.285403 30.147859,37.150515 33.432976,31.92055 39.252711,27.741814 45.597672,26.05713 c 2.197484,-0.583472 2.80691,-0.641901 6.762372,-0.648443 3.352302,-0.0056 4.749212,0.08872 6.103668,0.411714 3.506655,0.836332 6.430189,2.143031 9.580855,4.282241 l 1.918278,1.302465 2.610091,-2.38237 2.61009,-2.38237 v -3.497405 -3.497393 l 3.278543,-3.107702 c 3.405997,-3.228515 3.971577,-3.545282 4.774707,-2.67419 0.327664,0.355379 0.399711,0.97491 0.399711,3.437317 v 3.003794 h 3.243175 c 2.626319,0 3.315359,0.07091 3.622697,0.372519 0.799419,0.784669 0.457459,1.335644 -2.823767,4.549697 l -3.203288,3.137701 H 80.77295 77.071095 l -2.331055,2.147388 c -1.282078,1.18107 -2.41108,2.287759 -2.508885,2.459305 -0.111272,0.195147 0.371179,1.055138 1.288811,2.297403 5.796078,7.846589 6.589976,17.045445 2.195293,25.436724 -4.755215,9.079702 -15.366777,14.516644 -26.132624,13.389298 z m 8.986208,-3.148544 c 8.194605,-2.063005 14.470338,-8.179777 16.655519,-16.233622 0.589946,-2.174351 0.708122,-6.95437 0.226481,-9.161375 -0.697028,-3.194035 -3.249532,-8.244613 -4.967213,-9.828514 l -0.612553,-0.564843 -1.751633,1.642777 c -0.963407,0.903521 -3.136936,2.93842 -4.830057,4.521973 l -3.078413,2.879207 0.904792,1.859981 c 0.821276,1.688291 0.903104,2.035023 0.886419,3.756426 -0.02203,2.277767 -0.712949,3.997478 -2.273526,5.659265 -3.238952,3.449013 -8.196578,4.210595 -12.252242,1.882184 -1.529249,-0.87798 -3.334977,-2.948938 -3.928198,-4.505215 -1.0376,-2.722044 -0.542789,-6.172468 1.194533,-8.329792 2.997247,-3.721823 7.525981,-4.75561 12.068148,-2.754821 l 1.440414,0.634485 1.763867,-1.574244 c 0.970129,-0.865849 3.163334,-2.94299 4.873779,-4.615867 l 3.109911,-3.041611 -1.540068,-1.072501 c -4.304604,-2.997689 -8.713929,-4.325537 -14.219514,-4.282118 -2.658126,0.02095 -3.706579,0.138533 -5.675562,0.636434 -8.67216,2.192991 -15.233341,8.7695 -16.917503,16.957017 -0.557351,2.709532 -0.381257,7.673239 0.36238,10.214665 1.005075,3.43492 2.920842,6.57718 5.659502,9.282803 3.56437,3.521365 7.460761,5.499851 12.815553,6.507393 2.553131,0.480381 7.163328,0.265495 10.085184,-0.470087 z M 54.817585,55.828991 c 1.188609,-0.353274 2.893862,-1.758258 3.633972,-2.994082 0.592023,-0.988543 0.670609,-1.356939 0.66876,-3.135147 -0.0011,-1.486366 -0.115825,-2.220469 -0.435625,-2.798273 l -0.433538,-0.783291 -2.543293,2.383423 c -2.589252,2.426482 -3.395281,2.834656 -4.144818,2.098951 -0.735124,-0.721558 -0.325906,-1.467043 2.116136,-3.855036 2.634216,-2.575893 2.677002,-2.734064 0.86098,-3.1829 -2.614028,-0.646069 -5.070804,-0.09309 -6.764575,1.522738 -1.490345,1.421719 -2.046543,2.675791 -2.046543,4.614388 0,4.574677 4.3802,7.528645 9.088544,6.129229 z m 29.992049,-31.3715 1.60375,-1.53665 -1.818909,-0.0045 -1.818909,-0.0045 -1.387666,1.37643 c -0.763221,0.757023 -1.312276,1.450419 -1.220131,1.540863 0.0921,0.0904 0.813413,0.164444 1.602837,0.164444 h 1.43529 z m -3.830301,-4.905973 c 0,-0.889507 -0.08491,-1.617293 -0.188683,-1.617293 -0.103739,0 -0.810217,0.616473 -1.569843,1.369945 l -1.381138,1.369955 v 1.608556 1.608567 l 1.569832,-1.361218 1.569832,-1.361207 z"
         style="fill:#000000;stroke-width:0.239274" />
      <path
         style="fill:#000000;fill-opacity:1;fill-rule:nonzero;stroke-width:0.0648778;stroke-miterlimit:4;stroke-dasharray:none"
         d="m 89.548894,6.1330448 c -0.35189,0.16812 -0.48585,0.44149 -0.44852,0.91522 0.0231,0.29387 0.0658,0.39823 0.24075,0.58808 0.19089,0.20723 0.24743,0.23078 0.55408,0.23078 0.24444,0 0.39399,-0.0392 0.52614,-0.13833 0.54081,-0.4052 0.48507,-1.2764 -0.10135,-1.58458 -0.32643,-0.17154 -0.43219,-0.17308 -0.7711,-0.0113 z m 0.92215,0.30555 c 0.15867,0.19018 0.19629,0.2939 0.19629,0.5412 0,0.2646 -0.0305,0.33622 -0.22587,0.53008 -0.30941,0.30708 -0.6822,0.31605 -0.99829,0.0239 -0.36245,-0.33487 -0.36268,-0.81358 -6e-4,-1.16672 0.13415,-0.13081 0.23489,-0.16382 0.50005,-0.16382 0.30094,0 0.35047,0.0221 0.52838,0.23524 z"
         id="path1332" />
      <path
         d="m 57.82092,50.491758 a 7.3980994,7.7272859 0 0 1 -6.559442,8.509306 7.3980994,7.7272859 0 0 1 -8.15082,-6.8461 7.3980994,7.7272859 0 0 1 6.54946,-8.51769 7.3980994,7.7272859 0 0 1 8.158841,6.835668 l -7.353657,0.845715 z"
         sodipodi:arc-type="slice"
         sodipodi:end="6.1735204"
         sodipodi:start="6.1759697"
         sodipodi:ry="7.7272859"
         sodipodi:rx="7.3980994"
         sodipodi:cy="51.318657"
         sodipodi:cx="50.465302"
         sodipodi:type="arc"
         id="path469"
         style="mix-blend-mode:overlay;fill:#ffcb05;fill-opacity:1;stroke-width:0.161232" />
      <path
         id="path1328"
         d="m 91.672974,16.2577 c -0.35189,0.16812 -0.48585,0.44149 -0.44852,0.91522 0.0231,0.29387 0.0658,0.39823 0.24075,0.58808 0.19089,0.20723 0.24743,0.23078 0.55408,0.23078 0.24444,0 0.39399,-0.0392 0.52614,-0.13833 0.54081,-0.4052 0.48507,-1.2764 -0.10135,-1.58458 -0.32643,-0.17154 -0.43219,-0.17308 -0.7711,-0.0113 z m 0.92215,0.30555 c 0.15867,0.19018 0.19629,0.2939 0.19629,0.5412 0,0.2646 -0.0305,0.33622 -0.22587,0.53008 -0.30941,0.30708 -0.6822,0.31605 -0.99829,0.0239 -0.36245,-0.33487 -0.36268,-0.81358 -6e-4,-1.16672 0.13415,-0.13081 0.23489,-0.16382 0.50005,-0.16382 0.30094,0 0.35047,0.0221 0.52838,0.23524 z"
         style="fill:#000000;fill-opacity:1;fill-rule:nonzero;stroke-width:0.0648778;stroke-miterlimit:4;stroke-dasharray:none" />
      <path
         sodipodi:type="star"
         style="fill:#ffcb05;fill-opacity:1;stroke:none;stroke-width:0.264583;stroke-miterlimit:4;stroke-dasharray:none;stroke-opacity:1"
         id="path1190"
         sodipodi:sides="5"
         sodipodi:cx="94.168579"
         sodipodi:cy="9.0111418"
         sodipodi:r1="2.0397823"
         sodipodi:r2="1.0198911"
         sodipodi:arg1="1.0321722"
         sodipodi:arg2="1.6604907"
         inkscape:flatsided="false"
         inkscape:rounded="0"
         inkscape:randomized="0"
         d="M 95.214896,10.762122 94.077223,10.026933 92.826628,10.547331 93.174274,9.238154 92.29289,8.2095789 93.64542,8.1356517 94.351291,6.9795591 94.839555,8.243047 96.15719,8.5571175 95.106424,9.4119232 Z"
         inkscape:transform-center-x="-0.091813893"
         inkscape:transform-center-y="0.12221393"
         transform="matrix(0.72511995,-0.81130892,0.82684408,0.71067485,17.700809,78.890563)" />
      <path
         sodipodi:type="star"
         style="fill:#ffcb05;fill-opacity:1;stroke:none;stroke-width:0.264583;stroke-miterlimit:4;stroke-dasharray:none;stroke-opacity:1"
         id="path1194"
         sodipodi:sides="5"
         sodipodi:cx="98.930389"
         sodipodi:cy="14.434911"
         sodipodi:r1="2.2046824"
         sodipodi:r2="1.1023412"
         sodipodi:arg1="0.79909594"
         sodipodi:arg2="1.4274145"
         inkscape:flatsided="false"
         inkscape:rounded="0"
         inkscape:randomized="0"
         d="m 100.46784,16.015064 -1.379936,-0.489124 -1.185232,0.859463 0.03876,-1.46354 -1.183654,-0.861635 1.403887,-0.415394 0.453694,-1.391982 0.828888,1.206813 1.464052,0.0013 -0.89161,1.161245 z"
         inkscape:transform-center-x="-0.056130323"
         inkscape:transform-center-y="0.0089433794"
         transform="matrix(0.37060849,0.20058703,-0.24563864,0.37765874,55.034868,-14.143534)" />
      <path
         style="fill:#000000;fill-opacity:1;fill-rule:nonzero;stroke-width:0.0877458;stroke-miterlimit:4;stroke-dasharray:none"
         d="m 94.158262,10.28228 c -0.16929,-0.2423 -0.3078,-0.4866501 -0.3078,-0.5429901 0,-0.23564 -0.24089,-0.27851 -1.1093,-0.19738 -0.4693,0.0438 -0.87742,0.0599 -0.9069,0.0357 -0.0295,-0.0242 0.21612,-0.26782 0.5458,-0.54129 0.32969,-0.27347 0.59942,-0.54049 0.59942,-0.5934 0,-0.0529 -0.16877,-0.36584 -0.37506,-0.69542 -0.2063,-0.32957 -0.34414,-0.61493 -0.30632,-0.63414 0.0378,-0.0192 0.42751,0.11212 0.86601,0.29185 l 0.79728,0.32679 0.65853,-0.53723 c 0.36219,-0.29549 0.68111,-0.50674 0.7087,-0.46946 0.0276,0.0373 -0.009,0.3184 -0.0814,0.6247 -0.20714,0.87674 -0.22731,0.83709 0.60702,1.19338 0.40986,0.17504 0.75895,0.35605 0.77575,0.40226 0.018,0.0498 -0.32312,0.12517 -0.83611,0.18486 -0.97461,0.11341 -0.84687,-0.008 -1.08185,1.0258901 -0.0624,0.27455 -0.14329,0.51433 -0.17973,0.53283 -0.0365,0.0185 -0.20476,-0.16458 -0.37405,-0.40688 z m 0.41714,-0.7296501 c 0.0788,-0.48216 0.23156,-0.57173 0.97492,-0.57173 0.58796,0 0.5567,-0.15954 -0.0789,-0.40248 l -0.50807,-0.19421 0.0288,-0.5768 c 0.0159,-0.31724 -0.005,-0.5768 -0.0451,-0.5768 -0.0407,0 -0.27562,0.16337 -0.52222,0.36306 l -0.44836,0.36304 -0.5442,-0.21941 c -0.2993,-0.12068 -0.57581,-0.19344 -0.61445,-0.16166 -0.0387,0.0318 0.0578,0.25241 0.21439,0.49034 l 0.28464,0.43259 -0.47612,0.39738 c -0.53816,0.44918 -0.48063,0.54573 0.24346,0.40853 0.63737,-0.12078 0.63393,-0.12218 0.97093,0.39762 0.34744,0.5358901 0.41117,0.5175801 0.52023,-0.14947 z"
         id="path3842" />
      <path
         style="fill:#000000;fill-opacity:1;fill-rule:nonzero;stroke-width:0.0330898;stroke-miterlimit:4;stroke-dasharray:none"
         d="m 88.348721,11.592339 c -0.0657,-0.0888 -0.11944,-0.17835 -0.11944,-0.199 0,-0.0864 -0.0935,-0.10207 -0.43045,-0.0723 -0.18211,0.0161 -0.34047,0.022 -0.35191,0.0131 -0.0114,-0.009 0.0839,-0.0981 0.21179,-0.19837 0.12793,-0.10023 0.2326,-0.19809 0.2326,-0.21748 0,-0.0194 -0.0655,-0.13408 -0.14553,-0.25487 -0.0801,-0.12078 -0.13354,-0.22536 -0.11888,-0.2324 0.0147,-0.007 0.1659,0.0411 0.33605,0.10696 l 0.30937,0.11976 0.25554,-0.19689 c 0.14054,-0.1083 0.2643,-0.18572 0.275,-0.17205 0.0107,0.0137 -0.003,0.11669 -0.0316,0.22895 -0.0804,0.32131 -0.0882,0.30678 0.23555,0.43736 0.15904,0.0642 0.2945,0.13049 0.30102,0.14743 0.007,0.0183 -0.12538,0.0459 -0.32444,0.0678 -0.37819,0.0416 -0.32862,-0.003 -0.4198,0.37598 -0.0242,0.10062 -0.0556,0.18849 -0.0697,0.19527 -0.0142,0.007 -0.0795,-0.0603 -0.14515,-0.14911 z m 0.16186,-0.26741 c 0.0306,-0.1767 0.0899,-0.20954 0.3783,-0.20954 0.22816,0 0.21603,-0.0585 -0.0306,-0.1475 l -0.19715,-0.0712 0.0111,-0.2114 c 0.006,-0.11626 -0.002,-0.21139 -0.0175,-0.21139 -0.0158,0 -0.10695,0.0599 -0.20264,0.13305 l -0.17399,0.13306 -0.21116,-0.0804 c -0.11614,-0.0442 -0.22343,-0.0709 -0.23843,-0.0592 -0.015,0.0116 0.0224,0.0925 0.0832,0.1797 l 0.11045,0.15854 -0.18475,0.14564 c -0.20883,0.16462 -0.1865,0.20001 0.0945,0.14973 0.24732,-0.0443 0.24599,-0.0447 0.37675,0.14572 0.13483,0.1964 0.15956,0.18969 0.20187,-0.0548 z"
         id="path1330" />
      <ellipse
         style="fill:#ffcb05;fill-opacity:1;stroke:none;stroke-width:0.264583;stroke-miterlimit:4;stroke-dasharray:none;stroke-opacity:1"
         id="path1196"
         cx="91.12571"
         cy="14.573708"
         rx="1.099701"
         ry="1.0569942" />
      <path
         style="fill:#000000;fill-opacity:1;fill-rule:nonzero;stroke-width:0.0897806;stroke-miterlimit:4;stroke-dasharray:none"
         d="m 90.879075,15.397711 c -0.43707,-0.14427 -0.65783,-0.3701 -0.7868,-0.80486 -0.12532,-0.42244 0.0124,-0.86965 0.36449,-1.18362 0.39716,-0.35417 1.12407,-0.40765 1.58419,-0.11655 0.44575,0.282 0.57433,0.54511 0.53255,1.08974 -0.0414,0.53931 -0.3654,0.92146 -0.89814,1.0592 -0.39902,0.10318 -0.34096,0.10638 -0.79629,-0.044 z m 0.82489,-0.1622 c 0.45524,-0.17704 0.71058,-0.52635 0.71058,-0.97207 0,-0.31399 -0.0536,-0.42513 -0.32881,-0.68125 -0.27516,-0.25612 -0.39458,-0.30604 -0.73192,-0.30604 -0.68386,0 -1.24345,0.60179 -1.11509,1.19918 0.061,0.28368 0.53518,0.75305 0.82646,0.81801 0.30422,0.0678 0.31909,0.0665 0.63878,-0.0578 z"
         id="path3838" />
      <ellipse
         ry="1.0569942"
         rx="1.099701"
         cy="10.6298"
         cx="72.536301"
         id="path1196-8"
         style="display:inline;fill:#ffcb05;fill-opacity:1;stroke:none;stroke-width:0.264583;stroke-miterlimit:4;stroke-dasharray:none;stroke-opacity:1" />
      <path
         style="fill:#000000;fill-opacity:1;fill-rule:nonzero;stroke-width:0.0803073;stroke-miterlimit:4;stroke-dasharray:none"
         d="m 72.241567,9.1988965 c -0.43918,0.20639 -0.60638,0.54199 -0.55979,1.1235805 0.0289,0.36078 0.0822,0.4889 0.30047,0.72195 0.23825,0.25442 0.30881,0.28334 0.69154,0.28334 0.30507,0 0.49171,-0.0482 0.65666,-0.16984 0.67495,-0.49745 0.6054,-1.5669805 -0.12649,-1.9453105 -0.40741,-0.21061 -0.53941,-0.21249 -0.96239,-0.0137 z m 1.1509,0.37512 c 0.19804,0.23345 0.24499,0.36079 0.24499,0.6644005 0,0.32484 -0.0381,0.41277 -0.2819,0.65076 -0.38618,0.37698 -0.85145,0.388 -1.24594,0.0294 -0.45237,-0.41111 -0.45266,-0.9988005 -7.6e-4,-1.4323405 0.16743,-0.1606 0.29316,-0.20112 0.62411,-0.20112 0.3756,0 0.43741,0.0271 0.65944,0.28879 z"
         id="path3836" />
      <ellipse
         style="display:inline;fill:#ffcb05;fill-opacity:1;stroke:none;stroke-width:0.401403;stroke-miterlimit:4;stroke-dasharray:none;stroke-opacity:1"
         id="path1196-8-6"
         cx="80.689835"
         cy="9.6936512"
         rx="1.7036669"
         ry="1.5703652" />
      <path
         id="path3863"
         d="m 80.396693,10.500454 c -0.693919,-0.27509 -0.958099,-0.7224204 -0.884489,-1.4976502 0.0457,-0.48088 0.12988,-0.6516498 0.47476,-0.9622898 0.376439,-0.33912 0.487919,-0.37767 1.092649,-0.37767 0.48202,0 0.77691,0.0643 1.03754,0.22638 1.06644,0.6630598 0.95655,2.0886596 -0.19986,2.59294 -0.64372,0.28074 -0.85228,0.28324 -1.5206,0.0183 z m 1.81845,-0.50001 c 0.31291,-0.3111704 0.38709,-0.4809002 0.38709,-0.8855902 0,-0.43298 -0.0602,-0.55019 -0.44541,-0.8674098 -0.61017,-0.50249 -1.34531,-0.51717 -1.96862,-0.0393 -0.714749,0.5479698 -0.715209,1.3313198 -0.001,1.90919 0.26455,0.21407 0.4632,0.26808 0.98611,0.26808 0.59346,0 0.69112,-0.0361 1.04194,-0.38493 z"
         style="fill:#000000;fill-opacity:1;fill-rule:nonzero;stroke-width:0.116544;stroke-miterlimit:4;stroke-dasharray:none" />
      <path
         transform="matrix(0.56644838,-0.51297528,0.46968199,0.59375686,36.50029,63.8243)"
         inkscape:transform-center-y="0.15026012"
         inkscape:transform-center-x="0.011936057"
         d="M 95.214896,10.762122 94.077223,10.026933 92.826628,10.547331 93.174274,9.238154 92.29289,8.2095789 93.64542,8.1356517 94.351291,6.9795591 94.839555,8.243047 96.15719,8.5571175 95.106424,9.4119232 Z"
         inkscape:randomized="0"
         inkscape:rounded="0"
         inkscape:flatsided="false"
         sodipodi:arg2="1.6604907"
         sodipodi:arg1="1.0321722"
         sodipodi:r2="1.0198911"
         sodipodi:r1="2.0397823"
         sodipodi:cy="9.0111418"
         sodipodi:cx="94.168579"
         sodipodi:sides="5"
         id="path1190-4"
         style="display:inline;fill:#ffcb05;fill-opacity:1;stroke:none;stroke-width:0.264583;stroke-miterlimit:4;stroke-dasharray:none;stroke-opacity:1"
         sodipodi:type="star" />
      <path
         id="path3867"
         d="m 94.170534,21.45901 c -0.10291,-0.1532 -0.1871,-0.30769 -0.1871,-0.34331 0,-0.14899 -0.14644,-0.17609 -0.67433,-0.1248 -0.28528,0.0277 -0.53336,0.0379 -0.55128,0.0226 -0.0179,-0.0153 0.13137,-0.16933 0.33178,-0.34223 0.20041,-0.17291 0.36437,-0.34174 0.36437,-0.37519 0,-0.0335 -0.10259,-0.23131 -0.22798,-0.43969 -0.12541,-0.20838 -0.2092,-0.3888 -0.18622,-0.40094 0.023,-0.0121 0.25989,0.0709 0.52644,0.18452 l 0.48464,0.20662 0.40031,-0.33967 c 0.22017,-0.18684 0.41404,-0.3204 0.43081,-0.29683 0.0167,0.0236 -0.005,0.20132 -0.0495,0.39498 -0.12592,0.55433 -0.13818,0.52926 0.369,0.75453 0.24914,0.11068 0.46135,0.22512 0.47156,0.25434 0.0109,0.0315 -0.19642,0.0791 -0.50826,0.11688 -0.59244,0.0717 -0.51479,-0.005 -0.65763,0.64863 -0.0379,0.17359 -0.0871,0.32519 -0.10925,0.33689 -0.0222,0.0117 -0.12448,-0.10406 -0.22739,-0.25725 z m 0.25357,-0.46133 c 0.0479,-0.30485 0.14076,-0.36149 0.59263,-0.36149 0.35741,0 0.33841,-0.10087 -0.0479,-0.25447 l -0.30885,-0.12279 0.0174,-0.36469 c 0.01,-0.20058 -0.003,-0.36469 -0.0274,-0.36469 -0.0248,0 -0.16755,0.10329 -0.31745,0.22954 l -0.27256,0.22954 -0.3308,-0.13872 c -0.18194,-0.0763 -0.35002,-0.12231 -0.37351,-0.10221 -0.0235,0.0201 0.0351,0.15959 0.13032,0.31002 l 0.17302,0.27351 -0.28942,0.25125 c -0.32714,0.284 -0.29216,0.34505 0.148,0.2583 0.38744,-0.0764 0.38535,-0.0772 0.5902,0.2514 0.21121,0.33883 0.24995,0.32725 0.31624,-0.0945 z"
         style="fill:#000000;fill-opacity:1;fill-rule:nonzero;stroke-width:0.0543982;stroke-miterlimit:4;stroke-dasharray:none" />
      <path
         id="path3855"
         d="m 83.810551,12.251439 c -0.0921,-0.12743 -0.16736,-0.25595 -0.16736,-0.28558 0,-0.12394 -0.13098,-0.14648 -0.60315,-0.10382 -0.25519,0.023 -0.47708,0.0315 -0.49312,0.0188 -0.016,-0.0128 0.11752,-0.14086 0.29677,-0.28469 0.17926,-0.14383 0.32593,-0.28428 0.32593,-0.31211 0,-0.0278 -0.0918,-0.19241 -0.20394,-0.36575 -0.11217,-0.17335 -0.18712,-0.32343 -0.16655,-0.33354 0.0205,-0.0102 0.23245,0.0589 0.47087,0.1535 l 0.4335,0.17188 0.35807,-0.28256 c 0.19694,-0.15542 0.37034,-0.26653 0.38534,-0.24691 0.015,0.0196 -0.005,0.16746 -0.0443,0.32856 -0.11263,0.46112 -0.12359,0.44027 0.33005,0.62767 0.22285,0.0921 0.41267,0.18726 0.4218,0.21157 0.01,0.0262 -0.17569,0.0658 -0.45461,0.0972 -0.52993,0.0596 -0.46047,-0.004 -0.58824,0.53957 -0.0339,0.1444 -0.0779,0.27052 -0.0977,0.28025 -0.0198,0.01 -0.11134,-0.0866 -0.20339,-0.214 z m 0.22681,-0.38376 c 0.0429,-0.2536 0.1259,-0.3007 0.53009,-0.3007 0.3197,0 0.3027,-0.0839 -0.0429,-0.21169 l -0.27625,-0.10215 0.0156,-0.30337 c 0.009,-0.16686 -0.002,-0.30338 -0.0244,-0.30338 -0.0221,0 -0.14986,0.0859 -0.28393,0.19096 l -0.24379,0.19094 -0.2959,-0.1154 c -0.16275,-0.0635 -0.31309,-0.10173 -0.33409,-0.085 -0.0209,0.0167 0.0314,0.13277 0.11656,0.2579 l 0.15477,0.22752 -0.25888,0.20902 c -0.29262,0.23625 -0.26132,0.28702 0.13237,0.21485 0.34655,-0.0635 0.34469,-0.0642 0.52793,0.20915 0.18891,0.28185 0.22356,0.27222 0.28286,-0.0786 z"
         style="fill:#000000;fill-opacity:1;fill-rule:nonzero;stroke-width:0.0469237;stroke-miterlimit:4;stroke-dasharray:none" />
    </g>
  </g>
  <text
     style="font-style:normal;font-weight:normal;font-size:10.5833px;line-height:1.25;font-family:sans-serif;white-space:pre;shape-inside:url(#rect1278);fill:#000000;fill-opacity:1;stroke:none;"
     id="text1276"
     xml:space="preserve"><tspan
       style="visibility:hidden"
       x="-64.744141"
       y="95.069528"><tspan
         style="font-size:3.175px">O</tspan></tspan></text>
</svg>
